<svg xmlns="http://www.w3.org/2000/svg" width="320" height="80" shape-rendering="geometricPrecision" text-rendering="geometricPrecision" image-rendering="optimizeQuality" fill-rule="evenodd" clip-rule="evenodd"><defs><style>.fil0{fill:#878586}.fil1{fill:#95c11f}</style></defs><g id="Layer_x0020_1"><g id="_588325720"><path class="fil0" d="M.91 18.14c0-2.73 1.63-4.56 4.31-4.56 2.68 0 4.32 1.81 4.32 4.56v1.19h.11c1.2-1.81 2.84-3.29 4.77-4.29 1.93-1.01 4.08-1.51 6.25-1.46 3.13 0 7.06 1.44 8.74 5.75 2.57-3.56 5.82-5.75 10.76-5.75 6.31 0 11.38 2.88 11.38 11.07v18.72c0 2.44-1 4.57-4.56 4.57-3.57 0-4.57-2.13-4.57-4.57v-16.4c0-3.28-1.43-5.88-5-5.88-3.57 0-6.62 2.82-6.62 7.07v15.21c0 2.44-1 4.57-4.57 4.57-3.56 0-4.56-2.13-4.56-4.57v-16.4c0-3.28-1.45-5.88-5.01-5.88-3.56 0-6.63 2.82-6.63 7.07v15.21c0 2.44-1 4.57-4.56 4.57-3.56 0-4.56-2.13-4.56-4.57V18.14zM89.15 38.3c0 3.83.93 4.69.93 6.13 0 2.07-1.93 3.51-4.12 3.51-3.94 0-5.26-2.51-5.38-5.32-3.56 3.94-7.69 5.32-12.51 5.32-5.19 0-10.32-3.57-10.32-9.33 0-7.57 5.76-9.7 12.76-10.51l5.57-.63c2.18-.25 3.93-.75 3.93-3.38s-2.68-3.75-5.75-3.75c-6.75 0-6.94 5-10.56 5-2.32 0-3.88-1.64-3.88-3.5 0-3.63 5.12-8.26 14.51-8.26 8.74 0 14.82 2.81 14.82 9.39V38.3zm-9.14-6.56c-1 .93-2.87 1.25-3.93 1.44l-3.32.5c-3.82.55-5.88 1.75-5.88 4.51 0 2.06 1.94 3.75 5.07 3.75 5 0 8.06-3.28 8.06-6.64v-3.56zM127.98 44.43c0 11.01-6.75 16.09-16.26 16.09-6.94 0-13.76-3.14-13.76-7.57-.01-.51.08-1.01.26-1.47a3.832 3.832 0 012.03-2.11c.47-.19.96-.3 1.46-.31 3.83 0 4.57 4.69 9.7 4.69 5.56 0 7.82-2.81 7.82-10.01v-1.86h-.13c-1.64 2.38-5.19 4.37-8.82 4.37-9.63 0-14.63-6.26-14.63-15.26 0-11.83 6.63-17.41 14.32-17.41 4.44 0 7.94 2.07 9.63 5.47h.12V17.9c0-2.82 1.45-4.32 4.13-4.32 2.82 0 4.13 1.5 4.13 4.32v26.53zm-15.95-4.92c4.07 0 7.2-2.69 7.2-9.2 0-6.63-2.5-9.57-6.76-9.57-5.88 0-7.69 4.32-7.69 9.95 0 4.16 2.06 8.8 7.25 8.8v.02zM165.56 38.3c0 3.83.94 4.69.94 6.13 0 2.07-1.94 3.51-4.13 3.51-3.94 0-5.25-2.51-5.37-5.32-3.57 3.94-7.69 5.32-12.51 5.32-5.19 0-10.29-3.57-10.29-9.34 0-7.57 5.75-9.7 12.76-10.51l5.56-.63c2.19-.25 3.94-.75 3.94-3.38s-2.69-3.76-5.75-3.76c-6.76 0-6.94 5.01-10.57 5.01-2.31 0-3.88-1.64-3.88-3.5 0-3.63 5.13-8.26 14.51-8.26 8.74 0 14.82 2.81 14.82 9.38l-.03 15.35zm-9.12-6.56c-1 .93-2.88 1.25-3.94 1.44l-3.32.5c-3.82.55-5.88 1.75-5.88 4.5 0 2.07 1.94 3.76 5.07 3.76 5 0 8.07-3.28 8.07-6.64v-3.56zM173.45 18.14c0-2.73 1.64-4.56 4.31-4.56s4.31 1.81 4.31 4.56v1.19h.13c1.2-1.81 2.84-3.28 4.76-4.29 1.92-1 4.07-1.51 6.24-1.46 3.13 0 7.07 1.44 8.74 5.75 2.56-3.57 5.81-5.75 10.76-5.75 6.31 0 11.38 2.88 11.38 11.07v18.72c0 2.44-1 4.57-4.57 4.57-3.56 0-4.56-2.13-4.56-4.57v-16.4c0-3.28-1.44-5.89-5.01-5.89-3.56 0-6.62 2.82-6.62 7.07v15.22c0 2.44-1 4.57-4.57 4.57-3.57 0-4.57-2.13-4.57-4.57v-16.4c0-3.28-1.43-5.89-4.99-5.89-3.57 0-6.64 2.82-6.64 7.07v15.22c0 2.44-1 4.57-4.56 4.57-3.57 0-4.57-2.13-4.57-4.57l.03-25.23zM246.86 13.58c11.01 0 16.89 7.51 16.89 17.15 0 9.13-4.44 17.21-16.89 17.21-12.44 0-16.88-8.08-16.88-17.21 0-9.62 5.87-17.15 16.88-17.15zm0 27.6c5.47 0 7.76-4.88 7.76-10.45 0-5.95-2.44-10.39-7.76-10.39-5.31 0-7.77 4.44-7.77 10.39 0 5.57 2.33 10.45 7.77 10.45zM269.63 5.8c0-3 1.81-4.57 4.56-4.57 2.76 0 4.57 1.57 4.57 4.57v12.41h.12c1.82-2.94 4.95-4.63 9.01-4.63 9.63 0 14.07 8.2 14.07 16.95 0 11.83-6.69 17.4-14.32 17.4-4.44 0-8.13-1.88-9.63-5.77h-.13v1.45c0 2.81-1.44 4.32-4.13 4.32-2.82 0-4.13-1.51-4.13-4.32l.01-37.81zm15.94 14.9c-5.56-.07-7.31 5.46-7.31 10.13 0 5.2 2 9.96 7.31 9.96 4.88-.13 7.26-4.57 7.26-9.96 0-4.26-1.44-10.12-7.26-10.12v-.01zM308.34 18.14c0-2.43 1-4.56 4.56-4.56 3.57 0 4.56 2.13 4.56 4.56v25.23c0 2.44-1 4.57-4.56 4.57-3.56 0-4.56-2.13-4.56-4.57V18.14zM311.62 11.02a5.51 5.51 0 01-2.71-1.61 5.388 5.388 0 01-1.35-2.83c-.16-1.06-.01-2.14.45-3.11.45-.97 1.18-1.79 2.1-2.34.91-.56 1.97-.83 3.04-.78 1.07.04 2.1.41 2.96 1.04.87.63 1.52 1.51 1.89 2.52.36 1 .42 2.09.17 3.14a5.39 5.39 0 01-.89 1.91c-.42.58-.95 1.06-1.56 1.43-.61.37-1.29.62-1.99.73-.71.1-1.42.07-2.11-.1z"/><path class="fil1" d="M180.36 59.7h-5.87v-3.46h15.98v3.46h-5.87v14.89h-4.24zM204.75 68.67h-10.66c.39 1.75 1.88 2.83 4.03 2.83.65.02 1.3-.08 1.91-.32.61-.23 1.16-.59 1.63-1.04l2.18 2.36c-1.31 1.49-3.28 2.28-5.81 2.28-4.88 0-8.05-3.07-8.05-7.27 0-4.19 3.23-7.25 7.52-7.25 4.14 0 7.34 2.77 7.34 7.31-.01.33-.06.78-.09 1.1zm-10.71-2.39h6.93c-.13-.82-.56-1.56-1.19-2.1a3.57 3.57 0 00-2.28-.83c-.83 0-1.63.3-2.27.83-.63.54-1.06 1.28-1.19 2.1zM206.5 67.54c0-4.25 3.28-7.26 7.86-7.26 2.97 0 5.3 1.28 6.32 3.59l-3.18 1.7c-.29-.59-.74-1.08-1.3-1.43a3.5 3.5 0 00-1.86-.51c-2.07 0-3.7 1.44-3.7 3.91 0 2.46 1.64 3.9 3.7 3.9.65.01 1.3-.16 1.86-.51a3.33 3.33 0 001.3-1.43l3.18 1.73c-1.02 2.26-3.35 3.57-6.32 3.57-4.58 0-7.86-3.02-7.86-7.26zM237.45 66.51v8.08h-4.1v-7.45c0-2.28-1.04-3.33-2.85-3.33-1.97 0-3.38 1.21-3.38 3.8v6.98h-4.09V60.47h3.9v1.64c.61-.62 1.34-1.11 2.14-1.43.8-.32 1.67-.46 2.53-.43 3.33.03 5.85 1.96 5.85 6.26zM240.24 67.54c0-4.25 3.28-7.26 7.76-7.26s7.73 3.01 7.73 7.26c0 4.24-3.25 7.26-7.73 7.26s-7.76-3.02-7.76-7.26zm11.35 0c0-2.44-1.55-3.91-3.59-3.91s-3.62 1.47-3.62 3.91c0 2.43 1.58 3.9 3.62 3.9s3.59-1.47 3.59-3.9zM273.8 67.54c0 4.43-3.06 7.26-7.02 7.26-.79.04-1.58-.09-2.31-.39-.73-.29-1.39-.74-1.93-1.31v6.56h-4.09V60.47h3.91v1.64c1.02-1.23 2.53-1.83 4.42-1.83 3.96 0 7.02 2.83 7.02 7.26zm-4.14 0c0-2.44-1.54-3.91-3.59-3.91-2.04 0-3.58 1.47-3.58 3.91 0 2.43 1.54 3.9 3.58 3.9 2.05 0 3.61-1.47 3.61-3.9h-.02zM288.76 66.54v8.05h-3.82v-1.76c-.77 1.29-2.23 1.97-4.3 1.97-3.28 0-5.27-1.84-5.27-4.27 0-2.44 1.76-4.22 6.06-4.22h3.24c0-1.76-1.05-2.79-3.24-2.79-1.46-.01-2.89.45-4.07 1.32l-1.46-2.86c1.81-1.16 3.92-1.75 6.07-1.7 4.3 0 6.79 1.99 6.79 6.26zm-4.09 3.59v-1.46h-2.8c-1.91 0-2.51.71-2.51 1.64 0 1.02.86 1.7 2.3 1.7.64.05 1.27-.11 1.81-.45a3 3 0 001.2-1.43zM301.2 60.28v3.77c-.34 0-.6-.05-.91-.05-2.26 0-3.75 1.23-3.75 3.93v6.66h-4.09V60.47h3.91v1.86c.99-1.35 2.67-2.05 4.84-2.05zM309.69 69.06L307.73 71v3.59h-4.09V55.14h4.09v11.01l5.97-5.68h4.87l-5.87 6.01 6.39 8.13h-4.95z"/></g></g></svg>