<svg width="290" height="67" fill="none" xmlns="http://www.w3.org/2000/svg"><path d="M.942 16.01c0-2.468 1.492-4.12 3.93-4.12 2.437 0 3.929 1.637 3.929 4.12v1.075h.098a11.68 11.68 0 014.344-3.88 11.791 11.791 0 015.694-1.315c2.844 0 6.43 1.297 7.956 5.195 2.338-3.222 5.298-5.195 9.794-5.195 5.75 0 10.365 2.6 10.365 9.995V38.77c0 2.206-.915 4.125-4.158 4.125-3.243 0-4.154-1.919-4.154-4.125V23.974c0-2.96-1.308-5.309-4.556-5.309s-6.026 2.546-6.026 6.384v13.724c0 2.205-.91 4.124-4.158 4.124s-4.158-1.919-4.158-4.124V23.974c0-2.96-1.313-5.309-4.556-5.309-3.243 0-6.033 2.546-6.033 6.384v13.724c0 2.205-.91 4.124-4.154 4.124-3.244 0-4.157-1.922-4.157-4.127V16.009zM81.284 34.198c0 3.453.85 4.233.85 5.535 0 1.865-1.76 3.162-3.755 3.162-3.586 0-4.785-2.26-4.899-4.8-3.243 3.557-7.003 4.8-11.385 4.8-4.725 0-9.395-3.221-9.395-8.414 0-6.832 5.237-8.751 11.614-9.486l5.068-.567c1.99-.223 3.586-.676 3.586-3.05 0-2.372-2.448-3.388-5.238-3.388-6.147 0-6.318 4.519-9.619 4.519-2.106 0-3.531-1.48-3.531-3.163 0-3.275 4.665-7.454 13.21-7.454 7.957 0 13.494 2.54 13.494 8.472v13.834zm-8.316-5.919c-.91.844-2.617 1.13-3.586 1.298l-3.02.453c-3.481.494-5.351 1.58-5.351 4.062 0 1.866 1.766 3.39 4.615 3.39 4.552 0 7.342-2.96 7.342-5.99V28.28zM116.638 39.733c0 9.936-6.148 14.514-14.803 14.514-6.318 0-12.523-2.827-12.523-6.833a3.408 3.408 0 01.953-2.443 3.465 3.465 0 012.415-1.059h.041c3.482 0 4.158 4.233 8.829 4.233 5.063 0 7.117-2.54 7.117-9.033v-1.68h-.117c-1.492 2.146-4.725 3.945-8.027 3.945-8.77 0-13.325-5.648-13.325-13.778 0-10.677 6.033-15.703 13.036-15.703 4.044 0 7.232 1.865 8.776 4.933h.111v-1.043c0-2.54 1.313-3.897 3.76-3.897 2.561 0 3.755 1.357 3.755 3.898l.002 23.946zm-14.519-4.44c3.701 0 6.553-2.427 6.553-8.303 0-5.984-2.278-8.637-6.153-8.637-5.351 0-7.003 3.897-7.003 8.978 0 3.759 1.88 7.938 6.606 7.938l-.003.024zM150.857 34.198c0 3.453.856 4.233.856 5.535 0 1.865-1.766 3.163-3.76 3.163-3.586 0-4.78-2.26-4.895-4.8-3.247 3.556-7.003 4.8-11.39 4.8-4.725 0-9.365-3.222-9.365-8.427 0-6.832 5.237-8.751 11.614-9.487l5.068-.566c1.989-.223 3.586-.677 3.586-3.05 0-2.372-2.447-3.388-5.237-3.388-6.153 0-6.319 4.518-9.625 4.518-2.106 0-3.531-1.48-3.531-3.162 0-3.275 4.67-7.454 13.211-7.454 7.956 0 13.494 2.54 13.494 8.472l-.026 13.846zm-8.311-5.919c-.91.844-2.621 1.13-3.586 1.298l-3.019.453c-3.482.494-5.352 1.58-5.352 4.062 0 1.866 1.766 3.39 4.611 3.39 4.556 0 7.346-2.96 7.346-5.99V28.28zM158.032 16.01c0-2.468 1.493-4.12 3.925-4.12 2.432 0 3.929 1.637 3.929 4.12v1.075h.117a11.692 11.692 0 014.335-3.875 11.8 11.8 0 015.682-1.32c2.85 0 6.436 1.297 7.957 5.195 2.333-3.222 5.292-5.195 9.793-5.195 5.75 0 10.361 2.6 10.361 9.995V38.77c0 2.205-.91 4.125-4.154 4.125-3.244 0-4.158-1.919-4.158-4.125V23.974c0-2.96-1.309-5.309-4.556-5.309-3.248 0-6.034 2.54-6.034 6.379V38.77c0 2.205-.91 4.124-4.158 4.124s-4.158-1.919-4.158-4.124V23.973c0-2.96-1.308-5.308-4.551-5.308-3.243 0-6.038 2.54-6.038 6.378v13.728c0 2.205-.911 4.124-4.158 4.124-3.248 0-4.154-1.919-4.154-4.124l.02-22.762zM224.877 11.89c10.023 0 15.375 6.778 15.375 15.476 0 8.243-4.044 15.53-15.375 15.53-11.33 0-15.373-7.287-15.373-15.53 0-8.683 5.351-15.476 15.373-15.476zm0 24.908c4.973 0 7.063-4.406 7.063-9.432 0-5.368-2.223-9.374-7.063-9.374-4.839 0-7.079 4.004-7.079 9.374.002 5.026 2.126 9.432 7.079 9.432zM245.603 4.87c0-2.709 1.651-4.12 4.158-4.12 2.507 0 4.154 1.41 4.154 4.12v11.2h.114c1.652-2.655 4.502-4.178 8.202-4.178 8.769 0 12.808 7.4 12.808 15.293 0 10.677-6.088 15.702-13.036 15.702-4.044 0-7.401-1.697-8.769-5.2h-.117v1.303c0 2.54-1.308 3.897-3.755 3.897-2.567 0-3.76-1.356-3.76-3.897l.001-34.12zm14.519 13.443c-5.069-.058-6.66 4.933-6.66 9.146 0 4.692 1.82 8.986 6.66 8.986 4.441-.116 6.605-4.124 6.605-8.984 0-3.842-1.308-9.131-6.605-9.131v-.017zM280.848 16.01c0-2.201.91-4.12 4.158-4.12 3.247 0 4.154 1.918 4.154 4.12v22.76c0 2.206-.911 4.125-4.154 4.125-3.244 0-4.158-1.919-4.158-4.124V16.009zM283.832 9.58a4.784 4.784 0 01-2.883-2.24 4.717 4.717 0 01-.442-3.605 4.752 4.752 0 012.257-2.86 4.821 4.821 0 013.635-.441 4.777 4.777 0 012.885 2.237 4.712 4.712 0 01.447 3.605 4.755 4.755 0 01-2.254 2.863 4.822 4.822 0 01-3.635.445l-.01-.003z" fill="#848284"/><path d="M122.303 50.929h3.694v15.834h-3.694V50.93zM140.674 55.769c.936.904 1.404 2.246 1.404 4.026v6.967h-3.558v-6.424c0-.964-.213-1.684-.638-2.16-.426-.475-1.042-.713-1.848-.711-.898 0-1.612.275-2.144.825-.532.55-.798 1.369-.799 2.454v6.017h-3.558v-12.17h3.4v1.426a4.729 4.729 0 011.755-1.188 6.166 6.166 0 012.303-.419c1.52 0 2.748.453 3.683 1.357zM157.243 54.594l-5.178 12.17h-3.672l-5.155-12.17h3.673l3.398 8.279 3.511-8.28h3.423zM170.311 61.674h-9.282a2.857 2.857 0 001.186 1.787c.624.438 1.399.656 2.326.656.639 0 1.205-.094 1.699-.283a4.112 4.112 0 001.38-.894l1.893 2.037c-1.156 1.312-2.844 1.968-5.064 1.968-1.383 0-2.607-.268-3.671-.804-1.065-.535-1.886-1.278-2.464-2.227-.578-.95-.866-2.03-.866-3.236 0-1.19.285-2.265.855-3.223a5.977 5.977 0 012.349-2.24c.996-.534 2.11-.802 3.342-.803 1.2 0 2.287.257 3.261.77a5.644 5.644 0 012.292 2.205c.555.958.832 2.07.833 3.337 0 .045-.023.362-.069.95zm-8.325-3.914c-.546.453-.88 1.072-1.003 1.857h6.044c-.122-.768-.456-1.383-1.004-1.843-.547-.46-1.216-.69-2.006-.69-.807-.002-1.483.224-2.031.676zM173.892 66.571c-.973-.249-1.749-.562-2.326-.939l1.186-2.533c.546.348 1.207.63 1.984.848a8.371 8.371 0 002.281.328c1.505 0 2.258-.37 2.258-1.108 0-.348-.205-.597-.616-.746-.411-.15-1.042-.278-1.893-.385-1.003-.15-1.832-.324-2.486-.522a3.86 3.86 0 01-1.697-1.042c-.479-.497-.718-1.206-.718-2.126a3.312 3.312 0 01.672-2.047c.449-.595 1.102-1.06 1.962-1.393.859-.333 1.873-.499 3.042-.498.871.001 1.739.096 2.589.283.858.19 1.569.45 2.132.78l-1.186 2.512a7.126 7.126 0 00-3.535-.905c-.761 0-1.331.105-1.71.317-.38.21-.57.482-.571.812 0 .377.206.641.616.792.41.151 1.064.294 1.962.43 1.003.166 1.824.343 2.463.531a3.715 3.715 0 011.665 1.03c.471.497.707 1.191.707 2.08a3.205 3.205 0 01-.684 2.014c-.457.588-1.122 1.044-1.996 1.368-.874.325-1.912.487-3.113.487a12.006 12.006 0 01-2.988-.368zM281.162 66.571c-.975-.249-1.751-.562-2.327-.939l1.186-2.533c.546.348 1.208.63 1.984.848.742.214 1.51.325 2.282.328 1.506 0 2.258-.37 2.258-1.108 0-.348-.205-.597-.616-.746-.41-.15-1.041-.278-1.892-.385-1.004-.15-1.833-.324-2.486-.522a3.866 3.866 0 01-1.7-1.042c-.478-.497-.718-1.206-.718-2.126a3.312 3.312 0 01.672-2.047c.449-.595 1.103-1.06 1.962-1.393.859-.333 1.873-.499 3.043-.498.87.001 1.738.096 2.588.283.859.19 1.569.45 2.132.78l-1.186 2.512a7.125 7.125 0 00-3.534-.905c-.761 0-1.331.105-1.711.317-.38.21-.57.482-.57.812 0 .377.205.641.615.792.411.151 1.065.294 1.962.43 1.004.166 1.825.343 2.463.531a3.71 3.71 0 011.665 1.03c.471.497.707 1.191.707 2.08a3.193 3.193 0 01-.684 2.014c-.456.588-1.121 1.044-1.995 1.368-.875.325-1.912.487-3.114.487a12 12 0 01-2.986-.368zM192.776 66.176a3.67 3.67 0 01-1.287.576 6.594 6.594 0 01-1.608.193c-1.459 0-2.588-.37-3.386-1.109s-1.198-1.825-1.199-3.257v-5h-1.893v-2.714h1.893v-2.963h3.558v2.963h3.053v2.715h-3.054v4.954c0 .513.133.909.399 1.187.266.279.643.418 1.13.419.562 0 1.041-.15 1.437-.453l.957 2.489zM194.965 52.332a1.92 1.92 0 01-.616-1.403 1.902 1.902 0 01.616-1.403c.411-.376.943-.565 1.597-.565.654-.001 1.186.18 1.597.543a1.74 1.74 0 01.615 1.357c0 .588-.205 1.074-.615 1.459-.411.385-.943.577-1.597.577s-1.186-.189-1.597-.565zm-.182 2.263h3.56v12.17h-3.558l-.002-12.17zM221.023 55.759c.904.897 1.356 2.243 1.356 4.038v6.966h-3.559V60.34c0-.965-.201-1.685-.604-2.16-.403-.476-.977-.714-1.722-.713-.837 0-1.498.267-1.984.803-.486.535-.729 1.33-.73 2.386v6.107h-3.558V60.34c0-1.916-.775-2.873-2.326-2.873-.821 0-1.475.267-1.962.803-.486.535-.729 1.33-.729 2.386v6.107h-3.558v-12.17h3.398v1.403a4.505 4.505 0 011.676-1.176 5.68 5.68 0 012.178-.406c.867 0 1.65.17 2.349.509.69.33 1.274.843 1.688 1.482a5.031 5.031 0 011.906-1.472 6.047 6.047 0 012.52-.522c1.536 0 2.756.45 3.661 1.348zM237.659 61.674h-9.282a2.866 2.866 0 001.187 1.787c.624.438 1.399.656 2.326.656.639 0 1.204-.094 1.697-.283a4.108 4.108 0 001.379-.894l1.894 2.037c-1.156 1.312-2.843 1.968-5.064 1.968-1.383 0-2.607-.268-3.671-.804-1.064-.535-1.885-1.278-2.464-2.227-.578-.95-.867-2.03-.867-3.236 0-1.19.286-2.265.856-3.223a5.966 5.966 0 012.349-2.24c.996-.534 2.109-.802 3.341-.803 1.201 0 2.288.257 3.262.77a5.646 5.646 0 012.292 2.205c.555.958.832 2.07.832 3.337.002.045-.021.362-.067.95zm-8.324-3.914c-.546.453-.88 1.072-1.003 1.857h6.043c-.122-.768-.457-1.383-1.003-1.843-.546-.46-1.216-.69-2.007-.69-.806-.002-1.482.224-2.029.676h-.001zM251.242 55.769c.936.904 1.404 2.246 1.404 4.026v6.967h-3.558v-6.424c0-.964-.213-1.684-.638-2.16-.426-.475-1.042-.713-1.848-.713-.897 0-1.612.276-2.144.826-.532.55-.798 1.369-.798 2.454v6.017h-3.558V54.593h3.398v1.426a4.737 4.737 0 011.755-1.188 6.175 6.175 0 012.304-.419c1.52 0 2.748.453 3.683 1.357zM263.774 66.176a3.68 3.68 0 01-1.287.576 6.594 6.594 0 01-1.608.193c-1.46 0-2.589-.37-3.387-1.109s-1.197-1.825-1.198-3.257v-5h-1.892v-2.714h1.892v-2.963h3.558v2.963h3.057v2.715h-3.058v4.954c0 .513.133.909.4 1.187.266.279.642.418 1.128.419.562 0 1.041-.15 1.437-.453l.958 2.489zM267.754 66.141a5.996 5.996 0 01-2.407-2.227c-.578-.95-.866-2.03-.866-3.236 0-1.206.289-2.284.866-3.234a6.006 6.006 0 012.407-2.228c1.026-.535 2.185-.803 3.478-.803 1.293 0 2.448.267 3.467.803a6.02 6.02 0 012.394 2.228c.578.95.867 2.028.867 3.234 0 1.207-.289 2.286-.867 3.236a6.025 6.025 0 01-2.395 2.227c-1.019.536-2.175.804-3.467.803-1.291 0-2.451-.268-3.477-.803zm5.724-3.008c.585-.61.878-1.429.878-2.455 0-1.025-.293-1.843-.878-2.453-.585-.612-1.334-.917-2.246-.917-.912 0-1.665.306-2.258.916-.593.61-.889 1.429-.89 2.455 0 1.025.296 1.843.89 2.454.593.61 1.346.916 2.258.916.912 0 1.661-.305 2.246-.916z" fill="#0F68D3"/></svg>