<svg xmlns="http://www.w3.org/2000/svg" width="290" height="40" shape-rendering="geometricPrecision" text-rendering="geometricPrecision" image-rendering="optimizeQuality" fill-rule="evenodd" clip-rule="evenodd"><defs><style>.fil0{fill:#49111c}.fil2,.fil3,.fil4{fill:#435058;fill-rule:nonzero}.fil2,.fil4{fill:#7c1c2f}.fil2{fill:#000}</style></defs><g id="Layer_x0020_1"><g id="_625154608"><path class="fil0" d="M22.49 30.37c-.43-1.15-2.5-4.05-3.21-4.96-3.63 0-6.8.03-7.32-3.56-.47-3.27 2.93-5.81 6.01-4.42 1.17.53 3.84 4.96 4.75 6.29 1.36 1.98 3.46 4.7 4.41 6.63l5.97.01c-.77-1.67-2.68-4.15-3.83-5.83-2.09-3.06-5.53-9.16-8.39-11.05C13.73 8.76 3.71 16.57 7.8 25.22c.99 2.08 2.86 3.75 5.13 4.6 2.42.9 6.74.56 9.56.55z"/><path d="M32.2 21.6l5.94.02L27.73 6.11c-1.1-1.6-2.62-3.57-3.44-5.17l-6.04.03c1.95 3.33 4.73 7.11 6.93 10.32L32.2 21.6z" fill="#7c1c2f"/><path class="fil0" d="M2.78 13.23c-3.51 1.04-1.9 5.69 1.36 4.91 2.95-.72 1.99-5.91-1.36-4.91z"/><path class="fil2" d="M70.36 10.830000000000002c-2.61 0-4.86 1.04-6.3 2.85-1.28-1.94-3.39-2.85-5.87-2.85-2.14 0-4.05.74-5.43 2.21v-1.91h-6.07V29.3h6.37v-9.02c0-2.81 1.34-4.05 3.22-4.05 1.71 0 2.75 1.1 2.75 3.72v9.35h6.37v-9.02c0-2.81 1.34-4.05 3.18-4.05 1.68 0 2.75 1.1 2.75 3.72v9.35h6.37V18.91c0-5.63-3.12-8.08-7.34-8.08zm19.11 0c-2.85 0-5.93.74-8.01 2.11l2.14 4.33c1.24-.98 3.19-1.58 4.93-1.58 2.51 0 3.75 1.04 3.86 2.88h-3.63c-5.63 0-8.07 2.08-8.07 5.43 0 3.16 2.41 5.6 6.77 5.6 2.65 0 4.46-.9 5.36-2.64v2.34h5.93V19.21c0-5.76-3.38-8.38-9.28-8.38zm-.24 14.75c-1.51 0-2.38-.77-2.38-1.84 0-1.11.74-1.85 2.79-1.85h2.75v1.58c-.51 1.44-1.75 2.11-3.16 2.11zM116.86 11.129999999999999v2.22c-1.24-1.71-3.19-2.52-5.7-2.52-4.83 0-8.92 3.42-8.92 8.75 0 5.36 4.09 8.78 8.92 8.78 2.31 0 4.15-.7 5.39-2.14v.6c0 2.85-1.44 4.39-4.86 4.39-2.14 0-4.62-.74-6.13-1.94l-2.31 4.46c2.21 1.57 5.53 2.38 9.01 2.38 6.78 0 10.66-3.26 10.66-10.13V11.13h-6.06zm-4.19 12.17c-2.28 0-3.99-1.51-3.99-3.72s1.71-3.69 3.99-3.69c2.28 0 3.95 1.48 3.95 3.69s-1.67 3.72-3.95 3.72zM134.76 10.83c-2.85 0-5.94.74-8.02 2.11l2.15 4.33c1.24-.98 3.19-1.58 4.93-1.58 2.51 0 3.75 1.04 3.85 2.88h-3.62c-5.63 0-8.08 2.08-8.08 5.43 0 3.16 2.42 5.6 6.78 5.6 2.64 0 4.45-.9 5.36-2.64v2.34h5.93V19.21c0-5.76-3.38-8.38-9.28-8.38zm-.24 14.75c-1.51 0-2.38-.77-2.38-1.84 0-1.11.74-1.85 2.79-1.85h2.74v1.58c-.5 1.44-1.74 2.11-3.15 2.11z"/><path class="fil3" d="M161.91 11.8l-7.04 15.66-6.97-15.66h-1.78L154 29.3h1.71l7.91-17.5h-1.71zM181.59 20.490000000000002c0-5.2-3.56-8.82-8.35-8.82-4.79 0-8.38 3.69-8.38 8.88 0 5.2 3.72 8.89 9.02 8.89 2.65 0 5.06-.98 6.6-2.85l-.97-1.11c-1.34 1.64-3.39 2.45-5.6 2.45-4.19 0-7.24-2.82-7.41-6.97h15.05c0-.17.04-.34.04-.47zm-8.35-7.35c3.72 0 6.47 2.72 6.71 6.51h-13.41c.26-3.82 2.98-6.51 6.7-6.51zM195.33 11.67c-3.32 0-5.76 1.47-6.94 3.92V11.8h-1.61v17.5h1.68v-9.32c0-4.15 2.51-6.8 6.64-6.8 3.55 0 5.66 2.08 5.66 6.03V29.3h1.68V19.08c0-4.9-2.85-7.41-7.11-7.41zM217.32 27.02c-.7.64-1.67.97-2.71.97-2.15 0-3.25-1.24-3.25-3.48V13.24h5.56V11.8h-5.56V7.98h-1.68v3.82h-3.22v1.44h3.22v11.44c0 2.95 1.68 4.76 4.76 4.76 1.31 0 2.72-.41 3.59-1.24l-.71-1.18zM236.33 11.8v9.32c0 4.16-2.45 6.81-6.4 6.81-3.66 0-5.77-2.08-5.77-6.04V11.8h-1.67v10.23c0 4.89 2.84 7.41 7.3 7.41 3.09 0 5.47-1.45 6.61-3.89v3.75h1.61V11.8h-1.68zM246.72 15.62V11.8h-1.61v17.5h1.68v-9.12c0-4.32 2.31-6.9 6.2-6.9.13 0 .27.03.4.03v-1.64c-3.28 0-5.6 1.41-6.67 3.95zM272.67 20.490000000000002c0-5.2-3.55-8.82-8.35-8.82-4.79 0-8.38 3.69-8.38 8.88 0 5.2 3.72 8.89 9.02 8.89 2.65 0 5.06-.98 6.6-2.85l-.97-1.11c-1.34 1.64-3.39 2.45-5.6 2.45-4.19 0-7.24-2.82-7.41-6.97h15.06c0-.17.03-.34.03-.47zm-8.35-7.35c3.72 0 6.47 2.72 6.71 6.51h-13.41c.27-3.82 2.98-6.51 6.7-6.51zm17.97 16.3c4.46 0 6.91-1.95 6.91-4.8 0-6.67-11.6-2.95-11.6-8.21 0-1.88 1.51-3.29 4.92-3.29 1.88 0 3.79.51 5.27 1.58l.77-1.34c-1.38-1.04-3.79-1.71-6-1.71-4.43 0-6.64 2.14-6.64 4.79 0 6.88 11.6 3.12 11.6 8.22 0 1.97-1.48 3.28-5.16 3.28-2.58 0-4.96-.97-6.31-2.11l-.77 1.34c1.38 1.27 4.13 2.25 7.01 2.25z"/><path class="fil4" d="M155.14 39.06c1.02 0 1.89-.36 2.46-1.04l-.74-.72c-.45.5-1.01.74-1.66.74-1.28 0-2.21-.91-2.21-2.2s.93-2.2 2.21-2.2c.65 0 1.21.24 1.66.73l.74-.7c-.57-.68-1.44-1.05-2.45-1.05-1.91 0-3.33 1.35-3.33 3.22s1.42 3.22 3.32 3.22zM165.28 38.97h1.2l-2.8-6.26h-1.13l-2.8 6.26h1.19l.61-1.45h3.11l.62 1.45zm-3.34-2.36l1.16-2.74 1.17 2.74h-2.33zM171.87 32.71h-2.55v6.26h1.15v-1.8h1.4c1.64 0 2.65-.85 2.65-2.23 0-1.39-1.01-2.23-2.65-2.23zm-.05 3.47h-1.35v-2.49h1.35c1.01 0 1.54.46 1.54 1.25 0 .78-.53 1.24-1.54 1.24zM177.72 38.97h1.15v-6.26h-1.15v6.26zM183.86 38.97h1.15v-5.28h2.06v-.98h-5.27v.98h2.06v5.28zM194.32000000000002 38.97h1.21l-2.8-6.26h-1.14l-2.79 6.26h1.19l.61-1.45h3.1l.62 1.45zm-3.33-2.36l1.16-2.74 1.17 2.74h-2.33zM198.37 38.97h4.4v-.98h-3.25v-5.28h-1.15v6.26zm13.8-.97v-1.73h3v-.96h-3v-1.62h3.38v-.98h-4.53v6.26h4.65V38h-3.5zM228.83 33.69v-.98h-4.53v6.26h1.15v-2.39h3v-.99h-3v-1.9h3.38zM234.82999999999998 39.06c1.92 0 3.34-1.36 3.34-3.22s-1.42-3.22-3.34-3.22c-1.93 0-3.35 1.37-3.35 3.22s1.42 3.22 3.35 3.22zm0-1.02c-1.25 0-2.18-.92-2.18-2.2 0-1.28.93-2.2 2.18-2.2s2.18.92 2.18 2.2c0 1.28-.93 2.2-2.18 2.2zM248.24 38.97l-.01-6.26h-.94l-2.43 4.15-2.47-4.15h-.95v6.26h1.1v-4.1l2.04 3.39h.52l2.04-3.44.01 4.15h1.09zM253.11 38v-1.73h3v-.96h-3v-1.62h3.38v-.98h-4.53v6.26h4.65V38h-3.5zM264.32 32.71v4.24l-3.42-4.24h-.95v6.26h1.14v-4.24l3.43 4.24h.94v-6.26h-1.14zM270.44 38.97h1.15v-5.28h2.06v-.98h-5.27v.98h2.06v5.28zM279.38 39.06c1.92 0 3.34-1.36 3.34-3.22s-1.42-3.22-3.34-3.22-3.34 1.37-3.34 3.22 1.42 3.22 3.34 3.22zm0-1.02c-1.25 0-2.18-.92-2.18-2.2 0-1.28.93-2.2 2.18-2.2s2.18.92 2.18 2.2c0 1.28-.93 2.2-2.18 2.2z"/></g></g></svg>