<?xml version="1.0" encoding="UTF-8"?>
<!DOCTYPE svg PUBLIC "-//W3C//DTD SVG 1.1//EN" "http://www.w3.org/Graphics/SVG/1.1/DTD/svg11.dtd">
<!-- Creator: CorelDRAW 2018 -->
<svg xmlns="http://www.w3.org/2000/svg" xml:space="preserve" width="250px" height="38px" version="1.1" style="shape-rendering:geometricPrecision; text-rendering:geometricPrecision; image-rendering:optimizeQuality; fill-rule:evenodd; clip-rule:evenodd"
viewBox="0 0 250 38"
 xmlns:xlink="http://www.w3.org/1999/xlink">
 <defs>
  <style type="text/css">
   <![CDATA[
    .fil2 {fill:none}
    .fil0 {fill:black}
    .fil1 {fill:#3F3F3F}
    .fil3 {fill:url(#id0)}
   ]]>
  </style>
  <linearGradient id="id0" gradientUnits="userSpaceOnUse" x1="1.18" y1="-54.94" x2="56.86" y2="-54.94">
   <stop offset="0" style="stop-opacity:1; stop-color:#EE0A78"/>
   <stop offset="1" style="stop-opacity:1; stop-color:#FF6901"/>
  </linearGradient>
 </defs>
 <g id="Layer_x0020_1">
  <metadata id="CorelCorpID_0Corel-Layer"/>
  <g id="_909501288">
   <g>
    <path class="fil0" d="M98.89 16.8l0 11.67 -7.17 0 0 -10.51c0,-2.93 -1.21,-4.19 -3.1,-4.19 -2.08,0 -3.58,1.4 -3.58,4.55l0 10.12 -7.14 0 0 -10.51c0,-2.93 -1.16,-4.18 -3.1,-4.18 -2.11,0 -3.61,1.4 -3.61,4.55l0 10.12 -7.14 0 0 -20.41 6.8 0 0 2.15c1.55,-1.64 3.68,-2.49 6.1,-2.49 2.79,0 5.16,1.02 6.59,3.19 1.62,-2.03 4.14,-3.19 7.07,-3.19 4.77,0.05 8.28,2.78 8.28,9.13z"/>
    <path class="fil0" d="M122.52 17.14l0 11.33 -6.66 0 0 -2.64c-1.02,1.96 -3.05,2.97 -6.03,2.97 -4.89,0 -7.6,-2.76 -7.6,-6.29 0,-3.78 2.76,-6.1 9.08,-6.1l4.07 0c-0.13,-2.08 -1.5,-3.25 -4.34,-3.25 -1.96,0 -4.14,0.68 -5.54,1.77l-2.42 -4.86c2.32,-1.55 5.81,-2.38 9,-2.38 6.64,0.03 10.44,2.96 10.44,9.45zm-7.14 4.76l0 -1.76 -3.1 0c-2.3,0 -3.13,0.82 -3.13,2.08 0,1.21 0.97,2.08 2.67,2.08 1.59,-0.02 2.98,-0.77 3.56,-2.4z"/>
    <path class="fil0" d="M149.3 8.06l0 16.68c0,7.72 -4.36,11.38 -11.99,11.38 -3.92,0 -7.65,-0.9 -10.12,-2.67l2.59 -5.01c1.7,1.36 4.48,2.18 6.9,2.18 3.85,0 5.47,-1.74 5.47,-4.94l0 -0.68c-1.4,1.63 -3.46,2.43 -6.05,2.43 -5.42,0 -10.02,-3.86 -10.02,-9.86 0,-5.98 4.6,-9.83 10.02,-9.83 2.83,0 5.01,0.9 6.39,2.83l0 -2.49 6.81 0 0 -0.02zm-7.1 9.49c0,-2.5 -1.89,-4.14 -4.45,-4.14 -2.57,0 -4.48,1.64 -4.48,4.14 0,2.49 1.91,4.18 4.48,4.18 2.59,-0.02 4.45,-1.71 4.45,-4.18z"/>
    <path class="fil0" d="M173 17.14l0 11.33 -6.66 0 0 -2.64c-1.02,1.96 -3.05,2.97 -6.03,2.97 -4.89,0 -7.6,-2.76 -7.6,-6.29 0,-3.78 2.76,-6.1 9.08,-6.1l4.07 0c-0.13,-2.08 -1.51,-3.25 -4.34,-3.25 -1.96,0 -4.14,0.68 -5.54,1.77l-2.42 -4.86c2.32,-1.55 5.78,-2.38 9,-2.38 6.64,0.03 10.44,2.96 10.44,9.45zm-7.14 4.76l0 -1.76 -3.1 0c-2.3,0 -3.13,0.82 -3.13,2.08 0,1.21 0.97,2.08 2.67,2.08 1.59,-0.02 3,-0.77 3.56,-2.4z"/>
   </g>
   <g>
    <polygon class="fil1" points="178.93,0.53 180.82,0.53 180.82,28.47 178.93,28.47 "/>
    <path class="fil1" d="M202.95 16l0 12.47 -1.82 0 0 -3.51c-1.23,2.25 -3.66,3.65 -7.07,3.65 -4.41,0 -7.07,-2.25 -7.07,-5.62 0,-2.97 1.89,-5.49 7.34,-5.49l6.73 0 0 -1.58c0,-3.65 -1.99,-5.61 -5.84,-5.61 -2.71,0 -5.15,1.01 -6.78,2.49l-0.94 -1.35c1.96,-1.75 4.82,-2.79 7.87,-2.79 4.86,0 7.58,2.47 7.58,7.34zm-1.89 6.65l0 -3.68 -6.69 0.01c-4.06,0 -5.49,1.69 -5.49,3.94 0,2.57 1.98,4.14 5.45,4.14 3.31,0 5.61,-1.57 6.73,-4.41z"/>
    <path class="fil1" d="M230.28 18.64c0,5.88 -4.19,9.97 -9.71,9.97 -3.53,0 -6.51,-1.77 -8.06,-4.79l0 4.62 -1.82 0 0 -27.91 1.89 0 0 12.76c1.57,-2.93 4.53,-4.63 7.99,-4.63 5.54,0 9.71,4.07 9.71,9.98zm-1.89 0c0,-4.94 -3.44,-8.28 -7.94,-8.28 -4.5,0 -7.92,3.34 -7.92,8.28 0,4.93 3.39,8.28 7.92,8.28 4.53,0 7.94,-3.35 7.94,-8.28z"/>
    <path class="fil1" d="M233.21 26.09l0.87 -1.5c1.5,1.29 4.19,2.37 7.07,2.37 4.14,0 5.79,-1.47 5.79,-3.68 0,-5.71 -13.03,-1.5 -13.03,-9.22 0,-2.98 2.49,-5.37 7.46,-5.37 2.49,0 5.2,0.75 6.73,1.91l-0.87 1.5c-1.65,-1.21 -3.8,-1.77 -5.91,-1.77 -3.85,0 -5.55,1.58 -5.55,3.68 0,5.91 13.03,1.74 13.03,9.23 0,3.19 -2.76,5.37 -7.75,5.37 -3.19,0 -6.29,-1.09 -7.84,-2.52z"/>
   </g>
   <g>
    <path class="fil2" d="M38.97 27.86c4.6,0 8.35,-3.75 8.35,-8.35 0,-4.6 -3.75,-8.35 -8.35,-8.35 -1.26,0 -2.45,0.29 -3.51,0.77 1.09,2.3 1.69,4.87 1.69,7.58 0,2.71 -0.6,5.28 -1.69,7.58 1.06,0.5 2.25,0.77 3.51,0.77z"/>
    <path class="fil2" d="M19.16 11.16c-4.6,0 -8.35,3.75 -8.35,8.35 0,4.6 3.75,8.35 8.35,8.35 1.26,0 2.45,-0.29 3.51,-0.77 -1.09,-2.3 -1.69,-4.87 -1.69,-7.58 0,-2.71 0.6,-5.28 1.69,-7.58 -1.06,-0.48 -2.25,-0.77 -3.51,-0.77z"/>
    <path class="fil3" d="M38.97 1.54c-3.66,0 -7.05,1.09 -9.9,2.98 -2.84,-1.89 -6.25,-2.98 -9.91,-2.98 -9.9,0 -17.96,8.07 -17.96,17.97 0,9.9 8.06,17.96 17.96,17.96 3.66,0 7.05,-1.09 9.91,-2.98 2.83,1.89 6.24,2.98 9.9,2.98 9.9,0 17.96,-8.06 17.96,-17.96 0,-9.9 -8.06,-17.97 -17.96,-17.97zm-12.59 30.95c-2.13,1.18 -4.6,1.86 -7.22,1.86 -8.18,0 -14.84,-6.64 -14.84,-14.84 0,-8.21 6.64,-14.84 14.84,-14.84 2.62,0 5.09,0.67 7.22,1.86 -0.82,0.8 -1.58,1.67 -2.23,2.62 -1.5,-0.73 -3.19,-1.14 -4.99,-1.14 -6.34,0 -11.47,5.13 -11.47,11.47 0,6.35 5.13,11.48 11.47,11.48 1.8,0 3.49,-0.41 4.99,-1.14 3.83,-1.86 6.49,-5.76 6.49,-10.31l0.05 0 0 -0.03c0,-2.15 0.85,-4.14 2.2,-5.59 0.7,1.72 1.09,3.63 1.09,5.59 0,1.99 -0.39,3.88 -1.09,5.6 -1.28,3.17 -3.58,5.76 -6.51,7.41zm-3.71 -5.4c-1.06,0.5 -2.25,0.77 -3.51,0.77 -4.6,0 -8.35,-3.75 -8.35,-8.35 0,-4.6 3.75,-8.35 8.35,-8.35 1.26,0 2.45,0.29 3.51,0.77 -1.09,2.3 -1.69,4.87 -1.69,7.58 0.02,2.71 0.63,5.28 1.69,7.58zm16.3 7.26c-2.62,0 -5.09,-0.68 -7.22,-1.86 0.83,-0.8 1.58,-1.68 2.23,-2.62 1.5,0.73 3.2,1.14 4.99,1.14 6.34,0 11.47,-5.13 11.47,-11.48 0,-6.34 -5.13,-11.47 -11.47,-11.47 -1.79,0 -3.49,0.41 -4.99,1.13 -3.63,1.77 -6.2,5.38 -6.46,9.62 0.02,0.24 -0.92,4.86 -2.28,6.34 -0.7,-1.72 -1.09,-3.63 -1.09,-5.59 0,-1.99 0.39,-3.88 1.09,-5.6 1.28,-3.12 3.58,-5.71 6.51,-7.36 2.13,-1.18 4.6,-1.86 7.22,-1.86 8.18,0 14.84,6.63 14.84,14.84 0,8.21 -6.63,14.77 -14.84,14.77zm-3.51 -22.42c1.06,-0.51 2.25,-0.77 3.51,-0.77 4.6,0 8.35,3.75 8.35,8.35 0,4.6 -3.75,8.35 -8.35,8.35 -1.26,0 -2.45,-0.29 -3.51,-0.77 1.09,-2.3 1.69,-4.87 1.69,-7.58 -0.02,-2.71 -0.63,-5.28 -1.69,-7.58z"/>
   </g>
  </g>
 </g>
</svg>
