<?xml version="1.0" encoding="UTF-8"?>
<!DOCTYPE svg PUBLIC "-//W3C//DTD SVG 1.1//EN" "http://www.w3.org/Graphics/SVG/1.1/DTD/svg11.dtd">
<!-- Creator: CorelDRAW 2018 -->
<svg xmlns="http://www.w3.org/2000/svg" xml:space="preserve" width="100px" height="100px" version="1.1" style="shape-rendering:geometricPrecision; text-rendering:geometricPrecision; image-rendering:optimizeQuality; fill-rule:evenodd; clip-rule:evenodd"
viewBox="0 0 100 100"
 xmlns:xlink="http://www.w3.org/1999/xlink">
 <defs>
  <style type="text/css">
   <![CDATA[
    .fil0 {fill:#fff}
   ]]>
  </style>
 </defs>
 <g id="Layer_x0020_1">
  <metadata id="CorelCorpID_0Corel-Layer"/>
  <g id="_914995736">
   <path class="fil0" d="M19.45 7.67c0.49,0 0.88,-0.39 0.88,-0.88l0 -2.6c0,-0.47 -0.39,-0.86 -0.88,-0.86 -0.47,0 -0.86,0.39 -0.86,0.86l0 2.6c0,0.49 0.39,0.88 0.86,0.88z"/>
   <path class="fil0" d="M25.23 8.96c0.11,0.04 0.21,0.06 0.33,0.06 0.33,0 0.66,-0.21 0.79,-0.55l0.98 -2.41c0.18,-0.45 -0.04,-0.96 -0.49,-1.13 -0.44,-0.17 -0.95,0.04 -1.12,0.48l-0.97 2.42c-0.19,0.43 0.03,0.94 0.48,1.13l0 0z"/>
   <path class="fil0" d="M30.13 11.86c0.26,0 0.51,-0.1 0.68,-0.32l1.65 -2.02c0.3,-0.36 0.24,-0.91 -0.13,-1.21 -0.38,-0.31 -0.92,-0.25 -1.23,0.11l-1.63 2.02c-0.3,0.38 -0.24,0.93 0.12,1.23 0.17,0.13 0.36,0.19 0.54,0.19z"/>
   <path class="fil0" d="M12.31 8.47c0.14,0.34 0.46,0.55 0.81,0.55 0.11,0 0.21,-0.02 0.31,-0.06 0.45,-0.18 0.67,-0.68 0.49,-1.13l-0.96 -2.41c-0.18,-0.45 -0.68,-0.66 -1.13,-0.49 -0.45,0.17 -0.66,0.68 -0.49,1.13l0.97 2.41 0 0z"/>
   <path class="fil0" d="M7.86 11.54c0.17,0.22 0.42,0.32 0.68,0.32 0.19,0 0.37,-0.06 0.53,-0.19 0.38,-0.3 0.44,-0.85 0.13,-1.23l-1.64 -2.02c-0.29,-0.36 -0.84,-0.41 -1.22,-0.11 -0.37,0.3 -0.43,0.85 -0.13,1.21l1.65 2.02z"/>
   <path class="fil0" d="M13.39 47.98c-0.27,0 -0.52,0.13 -0.69,0.35 -0.16,0.2 -0.22,0.47 -0.15,0.75l1.24 4.8c0.29,1.13 1.3,1.91 2.47,1.91l6.15 0c1.16,0 2.17,-0.78 2.47,-1.91l1.24 -4.8c0.06,-0.28 0,-0.55 -0.16,-0.75 -0.16,-0.22 -0.42,-0.35 -0.68,-0.35l-11.89 0 0 0zm9.8 5.47c-0.09,0.36 -0.42,0.61 -0.78,0.61l-6.15 0c-0.37,0 -0.69,-0.25 -0.79,-0.61l-0.97 -3.72 9.66 0 -0.97 3.72z"/>
   <path class="fil0" d="M94.55 76.35l0.01 -0.26 -7.17 7.23c-1.78,1.8 -4.26,2.83 -6.77,2.83l-7.39 0 0 12.14 21.07 0c1.03,0 1.82,-0.87 1.74,-1.89l-1.43 -16.55c-0.1,-1.17 -0.12,-2.33 -0.06,-3.5l0 0z"/>
   <path class="fil0" d="M59.35 85.28l0 -0.86 0 -0.88 -1.97 0c-0.75,0 -1.51,0.11 -2.21,0.31l-0.25 0.08 -2.37 0.67c-0.4,0.12 -0.82,0.18 -1.24,0.18 -0.34,0 -0.68,-0.03 -1.04,-0.12l-8.21 -1.72c-0.46,-0.1 -0.81,-0.52 -0.81,-0.99 0,-0.55 0.46,-1.01 1.01,-1.01l1.63 0 2.27 0 0.55 0c1.63,0 3.25,-0.22 4.81,-0.64 0.46,-0.11 0.73,-0.59 0.62,-1.05 -0.13,-0.47 -0.61,-0.74 -1.07,-0.62 -1.04,0.28 -2.11,0.46 -3.18,0.53l0 -0.07c0,-0.52 0.35,-1 0.85,-1.14l3.37 -1c0.57,-0.17 1.18,-0.27 1.77,-0.34 0.35,-0.03 0.7,-0.06 1.04,-0.06 0.51,0 1.01,0.04 1.52,0.11l2.91 0.45 0 -0.88 0 -0.51c0,-0.13 0.03,-0.24 0.09,-0.36 0.12,-0.27 0.38,-0.47 0.69,-0.5l11.37 -1.18 0 -23.51c-0.78,-0.18 -1.49,-0.56 -2.07,-1.14l-6.25 -6.25 -1.07 0c-4.56,0 -8.95,1.81 -12.2,5.03l-10.19 10.09c-1.51,1.48 -3.52,2.38 -5.64,2.49l-13.75 0.73 0 1.22 -2.67 -0.4c-0.58,-0.09 -1.17,-0.13 -1.76,-0.13 -1.12,0 -2.24,0.16 -3.3,0.47l-3.38 1c-1.24,0.36 -2.1,1.5 -2.1,2.8l0 0.12 -2.41 0 -1.47 0c-1.52,0 -2.74,1.22 -2.74,2.74 0,1.3 0.91,2.43 2.18,2.69l8.21 1.73c0.46,0.1 0.93,0.14 1.39,0.14 0.59,0 1.17,-0.07 1.73,-0.24l2.6 -0.75c0.56,-0.16 1.15,-0.23 1.73,-0.23l1.99 0 0 1.73 15.23 0c3.83,0 7.61,-0.85 11.08,-2.47l5.73 -2.7c0,2.48 0.37,4.5 0.88,6.09 -0.55,0.09 -1.1,0.2 -1.63,0.36l-3.38 1c-1.23,0.36 -2.08,1.5 -2.08,2.8l0 0.12 -2.27 0 -1.63 0c-1.51,0 -2.74,1.22 -2.74,2.74 0,1.3 0.91,2.42 2.18,2.7l8.21 1.72c0.47,0.1 0.93,0.14 1.4,0.14 0.58,0 1.16,-0.07 1.72,-0.23l1.5 -0.43 -2.12 10.36c-0.22,1.07 0.61,2.08 1.7,2.08l17.39 0 0 -12.14 -11.28 0c-0.47,0 -0.86,-0.39 -0.86,-0.87l-0.01 0zm-47.07 -13.51c-0.34,0 -0.68,-0.04 -1.03,-0.12l-8.23 -1.71c-0.46,-0.1 -0.79,-0.52 -0.79,-1 0,-0.55 0.45,-1.01 1.01,-1.01l1.47 0 2.41 0 0.74 0c1.62,0 3.23,-0.22 4.81,-0.64 0.46,-0.11 0.73,-0.59 0.6,-1.05 -0.11,-0.46 -0.59,-0.74 -1.05,-0.62 -1.1,0.3 -2.22,0.48 -3.36,0.55l0 -0.09c0,-0.52 0.36,-0.99 0.85,-1.14l3.38 -1c0.9,-0.27 1.86,-0.4 2.81,-0.4 0.51,0 1.01,0.04 1.5,0.12l2.93 0.44 0 6.43 -1.99 0c-0.75,0 -1.49,0.11 -2.21,0.32l-2.6 0.75c-0.4,0.11 -0.83,0.17 -1.25,0.17l0 0z"/>
   <path class="fil0" d="M49.65 22.34c2.11,0 4.09,-0.4 5.89,-1.15 -1.34,1.05 -2.65,1.58 -3.43,1.58 -1.43,0 -2.6,1.17 -2.6,2.6 0,1.45 1.17,2.6 2.6,2.6 1.21,0 2.64,-0.37 4.1,-1.1 0,0.02 0,0.02 0,0.02 -1.62,1.56 -3.64,2.47 -5.78,2.47 -1.44,0 -2.6,1.16 -2.6,2.59 0,1.45 1.16,2.62 2.6,2.62 2.4,0 4.68,-0.7 6.72,-1.91 -0.97,1.04 -2.13,1.56 -3.46,2.05 -1.34,0.51 -2.03,2.01 -1.53,3.35 0.39,1.05 1.39,1.7 2.44,1.7 0.31,0 0.61,-0.05 0.9,-0.17 2.35,-0.87 4.36,-2.01 5.95,-3.95 2.71,2.29 6.22,3.68 10.04,3.68 6.01,0 11.21,-3.4 13.82,-8.36 0.3,1.92 0.5,3.98 0.5,6 0,1.43 1.17,2.6 2.6,2.6 1.45,0 2.62,-1.17 2.62,-2.6 0,-3.61 -0.57,-7.26 -1.2,-10.23 1.02,0.73 2.25,1.4 3.74,1.9 0.27,0.11 0.56,0.15 0.84,0.15 1.08,0 2.09,-0.68 2.46,-1.76 0.47,-1.36 -0.27,-2.85 -1.63,-3.31 -4.69,-1.6 -5.38,-5.56 -5.41,-5.69 -0.02,-0.14 -0.04,-0.27 -0.09,-0.4 -2.47,-7.98 -10.77,-11.02 -13.61,-11.84 -1.21,-2.08 -3.63,-4.07 -8.14,-4.07 -5.33,0 -7.87,2.79 -9.89,5.02 -1.81,2 -3,3.31 -5.99,3.31 -1.43,0 -2.6,1.17 -2.6,2.6 0,1.44 1.17,2.6 2.6,2.6 1.71,0 3.14,-0.29 4.36,-0.77 -1.75,1.72 -4.07,2.67 -6.82,2.67 -1.44,0 -2.6,1.16 -2.6,2.6 0,1.43 1.16,2.6 2.6,2.6l0 0zm35.08 5.5c-1.76,5.63 -7.03,9.73 -13.23,9.73 -3.47,0 -6.62,-1.27 -9.06,-3.38 -1.11,-0.97 -2.07,-2.11 -2.84,-3.38 -0.26,-0.43 -0.49,-0.88 -0.71,-1.34 -0.5,-1.1 -0.86,-2.28 -1.07,-3.52 -0.05,-0.27 -0.1,-0.56 -0.13,-0.84 -0.05,-0.46 -0.07,-0.94 -0.07,-1.41 0,-0.48 0.02,-0.96 0.07,-1.43 0.5,-0.02 0.97,-0.05 1.42,-0.09 1.1,-0.1 2.12,-0.29 3.03,-0.55 0.93,-0.26 1.76,-0.59 2.53,-0.97 3.64,-1.87 5.44,-5.06 6.32,-7.99 0.46,2.16 1.52,4.57 3.93,5.7 1.4,0.66 2.49,1.8 2.93,3.29 0.72,2.43 2.51,5.76 6.88,6.17 0,0 0.02,0 0.02,0 0,0 0,0.01 -0.02,0.01l0 0z"/>
   <path class="fil0" d="M6.34 30.15l3.01 6.5c0.69,1.5 1.21,3.07 1.54,4.7l0.61 3.02c0.23,1.08 1.2,1.88 2.31,1.88l11 0c1.11,0 2.09,-0.8 2.31,-1.88l0.62 -3.02c0.33,-1.63 0.85,-3.2 1.54,-4.7l3.01 -6.5c0.01,-0.04 0.02,-0.09 0.04,-0.13 0.75,-1.76 1.12,-3.61 1.12,-5.51 0,-3.92 -1.56,-7.55 -4.37,-10.24 -2.83,-2.7 -6.54,-4.09 -10.44,-3.9 -7.1,0.33 -12.86,5.91 -13.42,13 -0.19,2.31 0.17,4.54 1.08,6.67 0.01,0.04 0.03,0.07 0.04,0.11l0 0zm11.51 14.36l-4.56 -20.37 3.91 2.26c0.65,0.37 1.39,0.56 2.11,0.56 0.73,0 1.46,-0.19 2.11,-0.56l3.94 -2.26 -4.57 20.37 -2.94 0 0 0zm-10.91 -21.01c0.49,-6.11 5.66,-11.11 11.78,-11.39 3.43,-0.16 6.68,1.05 9.15,3.42 2.48,2.35 3.85,5.54 3.85,8.96 0,1.72 -0.34,3.38 -1.04,4.95 -0.01,0.03 -0.01,0.06 -0.03,0.09l-2.94 6.39c-0.75,1.62 -1.31,3.32 -1.67,5.07l-0.63 3.03c-0.05,0.29 -0.3,0.49 -0.6,0.49l-2.24 0 4.91 -21.91c0.01,-0.04 0,-0.09 0,-0.13 0.01,-0.06 0.01,-0.12 0.01,-0.19 -0.01,-0.06 -0.04,-0.11 -0.07,-0.17 -0.01,-0.04 -0.01,-0.09 -0.03,-0.13 -0.01,0 -0.01,0 -0.01,-0.01 -0.05,-0.06 -0.09,-0.11 -0.13,-0.15 -0.05,-0.03 -0.06,-0.07 -0.1,-0.1 -0.05,-0.03 -0.09,-0.04 -0.13,-0.06 -0.06,-0.03 -0.12,-0.07 -0.18,-0.08 -0.01,0 -0.01,0 -0.01,0 -0.04,-0.02 -0.09,0 -0.13,-0.02 -0.07,0 -0.13,-0.01 -0.19,0 -0.06,0.02 -0.11,0.03 -0.17,0.06 -0.04,0.01 -0.09,0.01 -0.13,0.04l-5.66 3.24c-0.77,0.44 -1.72,0.44 -2.48,0l-5.63 -3.24c-0.05,-0.03 -0.09,-0.03 -0.13,-0.04 -0.06,-0.03 -0.1,-0.04 -0.16,-0.06 -0.07,-0.01 -0.13,0 -0.2,0 -0.05,0.02 -0.09,0 -0.13,0.02 0,0 0,0 -0.02,0 -0.06,0.01 -0.11,0.05 -0.17,0.07 -0.05,0.03 -0.09,0.04 -0.13,0.07 -0.03,0.03 -0.06,0.06 -0.09,0.1 -0.06,0.04 -0.1,0.09 -0.14,0.15 0,0.01 0,0.01 0,0.01 -0.03,0.04 -0.03,0.09 -0.05,0.13 -0.03,0.06 -0.05,0.11 -0.05,0.17 -0.02,0.07 0,0.13 0,0.19 0,0.04 -0.02,0.09 0,0.13l4.9 21.91 -2.26 0c-0.29,0 -0.55,-0.2 -0.61,-0.49l-0.62 -3.03c-0.36,-1.75 -0.91,-3.45 -1.66,-5.07l-2.96 -6.41c-0.01,-0.02 -0.01,-0.05 -0.03,-0.08 -0.82,-1.88 -1.15,-3.87 -0.99,-5.94l0 0.01z"/>
   <path class="fil0" d="M80.62 84.42c2.06,0 4.08,-0.86 5.53,-2.31l8.37 -8.45c0.06,-0.06 0.12,-0.13 0.17,-0.19 3.11,-3.2 4.81,-7.43 4.81,-11.91 0,-5.08 -2.22,-9.87 -6.12,-13.15l-2.7 -2.26 0 0c-2.38,-2.05 -5.48,-3.32 -8.88,-3.35l-6.25 6.23c-0.63,0.64 -1.44,1.06 -2.32,1.2l0 23.26 2.32 -0.25c0.97,-0.1 1.78,-0.72 2.14,-1.6l3.78 -9.3c0.18,-0.44 0.68,-0.66 1.13,-0.47 0.01,0.01 0.03,0.03 0.06,0.04 0.39,0.2 0.59,0.66 0.41,1.08l-3.76 9.3c-0.61,1.49 -1.98,2.51 -3.57,2.68l-2.51 0.26 -1.73 0.18 -10.41 1.09 0 7.92 10.41 0 1.73 0 7.39 0 0 0z"/>
  </g>
 </g>
</svg>
