<?xml version="1.0" encoding="UTF-8"?>
<!DOCTYPE svg PUBLIC "-//W3C//DTD SVG 1.1//EN" "http://www.w3.org/Graphics/SVG/1.1/DTD/svg11.dtd">
<!-- Creator: CorelDRAW 2018 -->
<svg xmlns="http://www.w3.org/2000/svg" xml:space="preserve" width="100px" height="100px" version="1.1" style="shape-rendering:geometricPrecision; text-rendering:geometricPrecision; image-rendering:optimizeQuality; fill-rule:evenodd; clip-rule:evenodd"
viewBox="0 0 100 100"
 xmlns:xlink="http://www.w3.org/1999/xlink">
 <defs>
  <style type="text/css">
   <![CDATA[
    .fil0 {fill:#fff}
   ]]>
  </style>
 </defs>
 <g id="Layer_x0020_1">
  <metadata id="CorelCorpID_0Corel-Layer"/>
  <g id="_908390928">
   <path class="fil0" d="M16.37 25.62l-15.56 17.32c-0.33,0.37 -0.4,0.9 -0.2,1.33 0.2,0.46 0.64,0.74 1.13,0.74l7.22 0 0 53.25c0,0.69 0.55,1.24 1.23,1.24l14.15 0c0.68,0 1.23,-0.55 1.23,-1.24l0 -53.25 7.29 0c0.48,0 0.92,-0.28 1.13,-0.74 0.2,-0.43 0.11,-0.96 -0.21,-1.33l-15.56 -17.32c-0.48,-0.52 -1.37,-0.52 -1.85,0l0 0zm7.97 16.91c-0.68,0 -1.24,0.56 -1.24,1.25l0 53.25 -11.67 0 0 -53.25c0,-0.69 -0.56,-1.25 -1.24,-1.25l-5.68 0 12.79 -14.24 12.79 14.24 -5.75 0z"/>
   <path class="fil0" d="M42.88 99.5l14.16 0c0.7,0 1.25,-0.55 1.25,-1.24l0 -65.61 7.27 0c0.49,0 0.93,-0.28 1.13,-0.74 0.2,-0.44 0.11,-0.96 -0.21,-1.33l-15.56 -17.32c-0.47,-0.53 -1.37,-0.53 -1.84,0l-15.56 17.32c-0.32,0.37 -0.41,0.89 -0.21,1.33 0.2,0.46 0.64,0.74 1.13,0.74l7.22 0 0 65.61c0,0.69 0.55,1.24 1.23,1.24l-0.01 0zm-5.67 -69.33l12.79 -14.24 12.79 14.24 -5.75 0c-0.67,0 -1.23,0.55 -1.23,1.25l0 65.61 -11.68 0 0 -65.61c0,-0.7 -0.55,-1.25 -1.25,-1.25l-5.67 0 0 0z"/>
   <path class="fil0" d="M66.01 19.55c0.21,0.45 0.65,0.74 1.13,0.74l7.22 0 0 77.97c0,0.69 0.56,1.24 1.24,1.24l14.16 0c0.68,0 1.23,-0.55 1.23,-1.24l0 -77.97 7.28 0c0.48,0 0.92,-0.29 1.12,-0.74 0.2,-0.44 0.13,-0.96 -0.2,-1.33l-15.56 -17.32c-0.48,-0.53 -1.37,-0.53 -1.85,0l-15.56 17.32c-0.32,0.37 -0.41,0.89 -0.21,1.33l0 0zm16.7 -15.98l12.78 14.24 -5.73 0c-0.68,0 -1.25,0.55 -1.25,1.25l0 77.97 -11.68 0 0 -77.97c0,-0.7 -0.55,-1.25 -1.23,-1.25l-5.69 0 12.8 -14.24z"/>
  </g>
 </g>
</svg>
