<?xml version="1.0" encoding="UTF-8"?>
<!DOCTYPE svg PUBLIC "-//W3C//DTD SVG 1.1//EN" "http://www.w3.org/Graphics/SVG/1.1/DTD/svg11.dtd">
<!-- Creator: CorelDRAW 2018 -->
<svg xmlns="http://www.w3.org/2000/svg" xml:space="preserve" width="100px" height="100px" version="1.1" style="shape-rendering:geometricPrecision; text-rendering:geometricPrecision; image-rendering:optimizeQuality; fill-rule:evenodd; clip-rule:evenodd"
viewBox="0 0 100 100"
 xmlns:xlink="http://www.w3.org/1999/xlink">
 <defs>
  <style type="text/css">
   <![CDATA[
    .fil0 {fill:#fff}
   ]]>
  </style>
 </defs>
 <g id="Layer_x0020_1">
  <metadata id="CorelCorpID_0Corel-Layer"/>
  <g id="_914999264">
   <path class="fil0" d="M8.15 56.53l2.12 0c0.94,0 1.7,-0.76 1.7,-1.69 0,-0.94 -0.76,-1.7 -1.7,-1.7l-2.15 0c0.3,-6.31 2.47,-12.38 6.23,-17.46 0.21,-0.28 0.33,-0.64 0.33,-1 0,-0.93 -0.76,-1.7 -1.69,-1.7 -0.55,0 -1.05,0.26 -1.37,0.69 -4.19,5.66 -6.6,12.44 -6.9,19.47l-2.28 0c-0.93,0 -1.69,0.76 -1.69,1.7 0,0.93 0.76,1.69 1.69,1.69l2.27 0c0.46,9.64 4.8,18.71 12.06,25.08 0.32,0.3 0.72,0.46 1.15,0.46 0.93,0 1.69,-0.76 1.69,-1.7 0,-0.5 -0.21,-0.99 -0.6,-1.3 -6.5,-5.74 -10.43,-13.88 -10.86,-22.53l0 -0.01z"/>
   <path class="fil0" d="M98.86 6.21c-0.33,-0.38 -0.8,-0.61 -1.3,-0.61 -0.4,0 -0.79,0.14 -1.09,0.4l-20.52 17.03 0 -6.73 6.33 -5.35 0 1.36c0,0.93 0.76,1.69 1.69,1.69 0.94,0 1.7,-0.76 1.7,-1.69l0 -5.01c0,0 0,0 0,0 0,-0.94 -0.76,-1.7 -1.7,-1.7 -0.4,0 -0.79,0.14 -1.09,0.4l-9.71 8.22c-0.39,0.31 -0.6,0.79 -0.6,1.29 0,0 0,0 0,0l0 10.33 -5.93 4.92c-5.39,-5.9 -12.62,-9.81 -20.5,-11.1l0 0c-1.36,-0.22 -2.75,-0.35 -4.13,-0.41l0 -2.28c0,-0.94 -0.76,-1.7 -1.69,-1.7 -0.94,0 -1.7,0.76 -1.7,1.7l0 2.28c-7.63,0.36 -14.96,3.16 -20.87,7.98 -0.4,0.33 -0.63,0.8 -0.63,1.32 0,0.93 0.76,1.69 1.7,1.69 0.39,0 0.76,-0.13 1.08,-0.38 5.31,-4.32 11.86,-6.85 18.71,-7.21l0 2.14c0,0.93 0.76,1.7 1.71,1.7 0.93,0 1.69,-0.77 1.69,-1.7l0 -2.15c1.19,0.06 2.38,0.19 3.56,0.37l0 0c7.08,1.15 13.57,4.65 18.43,9.93l-3.97 3.29c-5.11,-5.44 -12.27,-8.54 -19.76,-8.54 -14.98,0 -27.13,12.14 -27.13,27.12 0,0.01 0,0.02 0,0.02 0,0.95 0.06,1.9 0.15,2.83 0.11,0.86 0.83,1.49 1.69,1.49 0.93,0 1.69,-0.76 1.69,-1.69 0,-0.04 0,-0.1 0,-0.14 -0.08,-0.82 -0.13,-1.65 -0.13,-2.49 0,0 0,0 0,0 0,-0.01 0,-0.01 0,-0.02 0,-13.12 10.64,-23.75 23.75,-23.75 6.47,0 12.67,2.65 17.16,7.35l-3.92 3.24c-3.5,-3.52 -8.26,-5.48 -13.23,-5.48 -5.97,0 -11.58,2.85 -15.09,7.67 -0.2,0.31 -0.32,0.65 -0.32,1.01 0,0.95 0.76,1.71 1.7,1.71 0.54,0 1.04,-0.28 1.37,-0.71 2.86,-3.96 7.45,-6.29 12.34,-6.29 3.95,0 7.75,1.53 10.59,4.29l-11.66 9.68c-0.39,0.31 -0.62,0.8 -0.62,1.3 0,0.94 0.76,1.7 1.71,1.7 0.38,0 0.77,-0.13 1.07,-0.39l5.44 -4.5c-0.09,0.2 -0.13,0.41 -0.13,0.63 0,0.15 0.03,0.31 0.07,0.47 0.23,0.67 0.33,1.38 0.33,2.08 0,3.76 -3.03,6.79 -6.77,6.79 -3.74,0 -6.79,-3.03 -6.79,-6.79 0,-3.75 3.05,-6.77 6.79,-6.77 0.57,0 1.15,0.07 1.72,0.21 0.15,0.05 0.3,0.08 0.46,0.08 0.93,0 1.69,-0.76 1.69,-1.71 0,-0.78 -0.53,-1.45 -1.29,-1.64 -0.84,-0.23 -1.72,-0.34 -2.61,-0.34 -5.62,0 -10.18,4.56 -10.18,10.18 0,5.63 4.56,10.19 10.18,10.19 5.63,0 10.19,-4.56 10.19,-10.19 0,-1.06 -0.16,-2.12 -0.49,-3.14 -0.23,-0.67 -0.88,-1.15 -1.59,-1.15 -0.1,0 -0.22,0.02 -0.32,0.05l4.98 -4.15c1.64,2.5 2.51,5.42 2.51,8.42 0,8.44 -6.83,15.28 -15.28,15.28 -8.43,0 -15.26,-6.84 -15.26,-15.28 0,-0.01 0,-0.03 0,-0.03 0,0 0,0 0,0 0,-0.66 0.03,-1.32 0.11,-1.96 0.02,-0.06 0.02,-0.13 0.02,-0.19 0,-0.93 -0.76,-1.69 -1.7,-1.69 -0.84,0 -1.56,0.62 -1.68,1.45 -0.11,0.79 -0.15,1.59 -0.15,2.39 0,10.3 8.36,18.67 18.66,18.67 10.32,0 18.68,-8.35 18.68,-18.67 0,0 0,-0.01 0,-0.01 0,-3.77 -1.15,-7.45 -3.28,-10.54l3.91 -3.26c2.9,4.02 4.46,8.85 4.46,13.81 -0.05,11.14 -7.77,20.76 -18.63,23.22l0 0c-1.68,0.36 -3.4,0.56 -5.11,0.56 -9.24,0 -17.63,-5.35 -21.55,-13.7 -0.27,-0.61 -0.87,-0.98 -1.53,-0.98 -0.94,0 -1.7,0.76 -1.7,1.69 0,0.25 0.06,0.51 0.16,0.72 4.46,9.56 14.08,15.65 24.62,15.65 1.95,0 3.92,-0.21 5.84,-0.63l0 0c12.41,-2.81 21.25,-13.8 21.31,-26.53 0,-5.75 -1.86,-11.36 -5.26,-15.98l3.98 -3.3c3.79,5.11 5.98,11.24 6.3,17.59l-2.14 0c-0.95,0 -1.71,0.76 -1.71,1.69 0,0.94 0.76,1.7 1.71,1.7l2.12 0c-0.87,16.45 -14.03,29.6 -30.47,30.48l0 -2.13c0,-0.94 -0.76,-1.7 -1.71,-1.7 -0.93,0 -1.69,0.76 -1.69,1.7l0 2.16c-4.51,-0.21 -8.93,-1.4 -12.94,-3.45 -0.25,-0.13 -0.52,-0.19 -0.78,-0.19 -0.94,0 -1.7,0.76 -1.7,1.69 0,0.65 0.35,1.22 0.93,1.52 4.49,2.3 9.45,3.6 14.49,3.83l0 2.26c0,0.94 0.76,1.7 1.69,1.7 0.95,0 1.71,-0.76 1.71,-1.7l0 -2.3c18.31,-0.89 32.98,-15.55 33.86,-33.87l2.31 0c0.95,0 1.71,-0.76 1.71,-1.69 0,-0.94 -0.76,-1.7 -1.71,-1.7l-2.3 0c-0.31,-7.14 -2.78,-14.04 -7.07,-19.75l5.95 -4.97 11.25 1.57c0.09,0.01 0.16,0.01 0.23,0.01 0,0 0,0 0.02,0 0.4,0 0.8,-0.14 1.1,-0.42l1.88 -1.62c0.37,-0.33 0.59,-0.79 0.59,-1.29 0,-0.93 -0.76,-1.69 -1.71,-1.69 -0.4,0 -0.8,0.14 -1.11,0.42l-1.3 1.11 -7.42 -1.01 5.05 -4.19 0 0 1.15 -0.97 7.37 0.89c-0.21,0.31 -0.34,0.66 -0.34,1.04 0,0.94 0.76,1.69 1.69,1.69 0.43,0 0.85,-0.16 1.17,-0.45l2.55 -2.22c0.37,-0.31 0.59,-0.79 0.59,-1.28 0,-0.86 -0.63,-1.59 -1.49,-1.69l-7.94 -0.94 10.55 -8.77c0.38,-0.32 0.61,-0.81 0.61,-1.31 0,-0.4 -0.13,-0.79 -0.38,-1.09l-0.01 0z"/>
  </g>
 </g>
</svg>
