<?xml version="1.0" encoding="UTF-8"?>
<!DOCTYPE svg PUBLIC "-//W3C//DTD SVG 1.1//EN" "http://www.w3.org/Graphics/SVG/1.1/DTD/svg11.dtd">
<!-- Creator: CorelDRAW 2018 -->
<svg xmlns="http://www.w3.org/2000/svg" xml:space="preserve" width="100px" height="100px" version="1.1" style="shape-rendering:geometricPrecision; text-rendering:geometricPrecision; image-rendering:optimizeQuality; fill-rule:evenodd; clip-rule:evenodd"
viewBox="0 0 100 100"
 xmlns:xlink="http://www.w3.org/1999/xlink">
 <defs>
  <style type="text/css">
   <![CDATA[
    .fil0 {fill:#fff;fill-rule:nonzero}
   ]]>
  </style>
 </defs>
 <g id="Layer_x0020_1">
  <metadata id="CorelCorpID_0Corel-Layer"/>
  <g id="_912313768">
   <path class="fil0" d="M2.61 12.51l1.19 0c1.15,0 2.11,-0.95 2.11,-2.11 0,-1.16 -0.96,-2.11 -2.11,-2.11l-1.19 0c-1.16,0 -2.11,0.95 -2.11,2.11 0,1.16 0.95,2.11 2.11,2.11z"/>
   <path class="fil0" d="M42.57 12.51l11.65 0 0 21.06 -14.88 0c-1.15,0 -2.11,0.95 -2.11,2.11 0,1.15 0.96,2.11 2.11,2.11l16.97 0c1.17,0 2.11,-0.96 2.11,-2.11l0 -0.43 7.16 0c0.89,0 1.67,-0.55 1.98,-1.38l0.72 0.55c4.25,3.27 9.47,5.03 14.83,5.05l3.08 0c2.81,0 5.12,-2.33 5.13,-5.14 -0.01,-0.3 -0.04,-0.6 -0.1,-0.9l1.77 0c0.01,0 0.01,0 0.01,0 2.81,0 5.12,-2.31 5.12,-5.13 0,-0.74 -0.16,-1.47 -0.47,-2.15 1.15,-0.96 1.81,-2.38 1.81,-3.89 0,-1.92 -1.08,-3.67 -2.79,-4.53 0.15,-0.49 0.23,-0.99 0.23,-1.49 0,-0.02 0.02,-0.05 0.02,-0.07 0,-2.82 -2.33,-5.14 -5.14,-5.14l-0.2 0c-0.93,-3.13 -3.83,-5.28 -7.1,-5.27l-6.04 0c-3.43,0 -6.69,1.44 -9.01,3.96l-2.03 2.23c-0.36,-0.68 -1.04,-1.11 -1.82,-1.14l-7.16 0 0 -0.41c0,-1.16 -0.94,-2.11 -2.11,-2.11l-13.74 0c-1.16,0 -2.11,0.95 -2.11,2.11 0,1.16 0.95,2.11 2.11,2.11l0 0zm25.26 5.26l4.77 -5.19c1.5,-1.63 3.61,-2.58 5.84,-2.6l6 0c0.93,-0.03 1.8,0.36 2.42,1.05l-3.75 0c-1.16,0 -2.1,0.95 -2.1,2.11 0,1.15 0.94,2.11 2.1,2.11l8.67 0c0.5,0 0.92,0.4 0.92,0.92 0,0.5 -0.42,0.9 -0.92,0.9l-5.65 0c-1.15,0 -2.1,0.96 -2.1,2.11 0,1.16 0.95,2.11 2.1,2.11l8.25 0c0.5,0 0.9,0.41 0.9,0.92 0,0.5 -0.4,0.91 -0.9,0.91 0,0 -8.25,0 -8.25,0 -1.15,0 -2.1,0.95 -2.1,2.11 0,1.15 0.95,2.1 2.1,2.1l6.86 0c0.47,0.06 0.83,0.46 0.83,0.93 0,0.46 -0.36,0.86 -0.83,0.92l-9.13 0c-1.16,0 -2.11,0.95 -2.11,2.11 0,1.15 0.95,2.09 2.11,2.09l2.32 0c0.51,0 0.92,0.42 0.92,0.92 0,0.5 -0.41,0.92 -0.92,0.92l-3.07 0c-4.44,-0.01 -8.75,-1.51 -12.26,-4.22l-3.03 -2.31 0.01 -10.92 0 0zm-4.34 -2.74l0 16.02 -5.07 0 0 -16.02 5.07 0z"/>
   <path class="fil0" d="M2.61 37.79l3.48 0c1.15,0 2.11,-0.96 2.11,-2.11 0,-1.16 -0.96,-2.11 -2.11,-2.11l-3.48 0c-1.16,0 -2.11,0.95 -2.11,2.11 0,1.15 0.95,2.11 2.11,2.11z"/>
   <path class="fil0" d="M60.53 83.11l0 3.08c0,2.81 2.33,5.12 5.12,5.13 0.32,-0.01 0.62,-0.04 0.92,-0.1l0 1.77c0,0.01 0,0.01 0,0.01 0,2.81 2.31,5.12 5.12,5.12 0.75,0 1.48,-0.16 2.16,-0.47 0.96,1.15 2.38,1.81 3.88,1.81 1.93,0 3.68,-1.08 4.54,-2.79 0.49,0.15 0.99,0.23 1.49,0.23 0.02,0 0.04,0.02 0.07,0.02 2.82,0 5.14,-2.33 5.14,-5.14l0 -0.2c3.13,-0.93 5.28,-3.83 5.26,-7.1l0 -6.04c0,-3.43 -1.43,-6.69 -3.96,-9.01l-2.22 -2.03c0.68,-0.35 1.11,-1.04 1.13,-1.82l0 -7.16 0.42 0c1.16,0 2.11,-0.94 2.11,-2.11l0 -13.74c0,-1.16 -0.95,-2.11 -2.11,-2.11 -1.16,0 -2.11,0.95 -2.11,2.11l0 11.65 -21.06 0 0 -14.88c0,-1.15 -0.95,-2.11 -2.11,-2.11 -1.15,0 -2.11,0.96 -2.11,2.11l0 16.97c0,1.17 0.96,2.11 2.11,2.11l0.43 0 0 7.16c0,0.89 0.54,1.67 1.38,1.98l-0.55 0.72c-3.27,4.25 -5.03,9.47 -5.05,14.83l0 0zm29.49 1.37c0.01,0.92 -0.38,1.78 -1.05,2.38l0 -3.75c0,-1.16 -0.95,-2.1 -2.11,-2.1 -1.15,0 -2.11,0.94 -2.11,2.1l0 8.67c0,0.5 -0.4,0.92 -0.9,0.92 -0.52,0 -0.92,-0.42 -0.92,-0.92 0,0 0,-5.65 0,-5.65 0,-1.15 -0.96,-2.1 -2.11,-2.1 -1.16,0 -2.11,0.95 -2.11,2.1l0 8.25c0,0.5 -0.41,0.9 -0.92,0.9 -0.5,0 -0.91,-0.4 -0.91,-0.9l0 -8.25c0,-1.15 -0.95,-2.1 -2.1,-2.1 -1.16,0 -2.11,0.95 -2.11,2.1l0 6.86c-0.06,0.47 -0.46,0.83 -0.93,0.83 -0.46,0 -0.86,-0.36 -0.92,-0.83l0 -9.13c0,-1.16 -0.95,-2.11 -2.11,-2.11 -1.15,0 -2.09,0.95 -2.09,2.11l0 2.32c0,0.51 -0.42,0.92 -0.92,0.92 -0.5,0 -0.92,-0.41 -0.92,-0.92l0 -3.07c0.01,-4.44 1.51,-8.75 4.22,-12.26l2.31 -3.03 10.93 0 5.2 4.76c1.63,1.51 2.56,3.63 2.58,5.86l0 6.04 0 0zm-5.05 -26.06l0 5.07 -16.02 0 0 -5.07 16.02 0z"/>
   <path class="fil0" d="M89.6 5.91c1.16,0 2.11,-0.96 2.11,-2.11l0 -1.19c0,-1.16 -0.95,-2.11 -2.11,-2.11 -1.16,0 -2.11,0.95 -2.11,2.11l0 1.19c0,1.15 0.95,2.11 2.11,2.11z"/>
   <path class="fil0" d="M64.32 8.2c1.16,0 2.11,-0.96 2.11,-2.1l0 -3.49c0,-1.16 -0.95,-2.11 -2.11,-2.11 -1.15,0 -2.11,0.95 -2.11,2.11l0 3.49c0,1.14 0.96,2.1 2.11,2.1z"/>
   <path class="fil0" d="M3.33 82.33c-0.15,0.47 -0.23,0.97 -0.23,1.47 0,0.02 0,0.02 0,0.03 0,2.82 2.31,5.14 5.12,5.14l0.2 0c0.93,3.13 3.83,5.28 7.1,5.26l6.04 0c3.43,0 6.69,-1.43 9.01,-3.96l2.03 -2.22c0.36,0.68 1.04,1.11 1.82,1.13l7.16 0 0 0.42c0,1.16 0.94,2.11 2.11,2.11l13.74 0c1.16,0 2.11,-0.95 2.11,-2.11 0,-1.16 -0.95,-2.11 -2.11,-2.11l-11.65 0 0 -21.06 14.89 0c1.15,0 2.1,-0.95 2.1,-2.11 0,-1.15 -0.95,-2.11 -2.1,-2.11l-16.98 0c-1.17,0 -2.11,0.96 -2.11,2.11l0 0.43 -7.16 0c-0.89,0 -1.67,0.54 -1.98,1.38l-0.72 -0.55c-4.25,-3.27 -9.47,-5.03 -14.83,-5.05l-3.07 0c-2.82,0 -5.13,2.33 -5.14,5.14 0.01,0.3 0.04,0.6 0.1,0.9l-1.77 0c-0.01,0 -0.01,0 -0.01,0 -2.81,0 -5.12,2.31 -5.12,5.12 0,0.75 0.16,1.48 0.47,2.16 -1.15,0.96 -1.81,2.38 -1.81,3.88 0,1.93 1.08,3.68 2.79,4.54l0 0.06 0 0zm33.18 -13.38l5.07 0 0 16.02 -5.07 0 0 -16.02zm-29.48 1.84l9.14 0c1.15,0 2.09,-0.95 2.09,-2.11 0,-1.15 -0.94,-2.11 -2.09,-2.11l-2.36 0c-0.5,0 -0.91,-0.4 -0.91,-0.9 0,-0.5 0.41,-0.92 0.91,-0.92l3.08 0c4.44,0.01 8.75,1.49 12.26,4.2l3.03 2.33 0 10.96 -4.76 5.19c-1.51,1.64 -3.63,2.57 -5.86,2.59l-6 0c-0.93,0.03 -1.8,-0.36 -2.42,-1.05l3.75 0c1.16,0 2.1,-0.95 2.1,-2.11 0,-1.15 -0.94,-2.11 -2.1,-2.11l-8.67 0c-0.5,0 -0.92,-0.4 -0.92,-0.92 0,-0.5 0.42,-0.9 0.92,-0.9 0,0 5.65,0 5.65,0 1.15,0 2.1,-0.96 2.1,-2.11 0,-1.16 -0.95,-2.11 -2.1,-2.11l-8.25 0c-0.49,0 -0.9,-0.41 -0.9,-0.92 0,-0.5 0.41,-0.91 0.9,-0.91 0,0 8.25,0 8.25,0 1.15,0 2.1,-0.95 2.1,-2.11 0,-1.15 -0.95,-2.1 -2.1,-2.1l-6.86 0c-0.47,-0.06 -0.83,-0.46 -0.83,-0.93 0,-0.46 0.36,-0.86 0.83,-0.92l0.02 -0.03 0 0z"/>
   <path class="fil0" d="M99.5 89.6c0,-1.16 -0.95,-2.11 -2.11,-2.11l-1.18 0c-1.16,0 -2.1,0.95 -2.1,2.11 0,1.16 0.94,2.11 2.1,2.11l1.18 0c1.16,0 2.11,-0.95 2.11,-2.11z"/>
   <path class="fil0" d="M97.39 62.21l-3.48 0c-1.15,0 -2.11,0.96 -2.11,2.11 0,1.16 0.96,2.11 2.11,2.11l3.48 0c1.16,0 2.11,-0.95 2.11,-2.11 0,-1.15 -0.95,-2.11 -2.11,-2.11z"/>
   <path class="fil0" d="M5.77 15.52l0 6.04c0,3.43 1.43,6.69 3.96,9.01l2.22 2.03c-0.68,0.35 -1.11,1.04 -1.13,1.82l0 7.16 -0.42 0c-1.15,0 -2.11,0.94 -2.11,2.11l0 13.74c0,1.16 0.96,2.11 2.11,2.11 1.16,0 2.11,-0.95 2.11,-2.11l0 -11.65 21.06 0 0 14.9c0,1.14 0.95,2.09 2.11,2.09 1.15,0 2.11,-0.95 2.11,-2.09l0 -16.99c0,-1.17 -0.96,-2.11 -2.11,-2.11l-0.43 0 0 -7.16c0,-0.89 -0.54,-1.67 -1.38,-1.98l0.55 -0.72c3.27,-4.25 5.03,-9.47 5.05,-14.83l0 -3.08c0,-2.81 -2.33,-5.12 -5.12,-5.13 -0.32,0.01 -0.62,0.04 -0.92,0.1l0 -1.77c0,-0.01 0,-0.01 0,-0.01 0,-2.81 -2.31,-5.12 -5.12,-5.12 -0.75,0 -1.48,0.16 -2.16,0.47 -0.96,-1.15 -2.38,-1.81 -3.88,-1.81 -1.93,0 -3.68,1.08 -4.54,2.79 -0.49,-0.15 -0.97,-0.23 -1.49,-0.23 -0.02,0 -0.04,-0.02 -0.07,-0.02 -2.82,0 -5.14,2.33 -5.14,5.14l0 0.2c-3.13,0.93 -5.28,3.83 -5.26,7.1l0 0zm9.26 26.06l0 -5.07 16.02 0 0 5.07 -16.02 0zm-5.05 -26.06c-0.01,-0.92 0.38,-1.78 1.05,-2.38l0 3.75c0,1.16 0.95,2.1 2.11,2.1 1.15,0 2.11,-0.94 2.11,-2.1l0 -8.67c0,-0.5 0.42,-0.92 0.92,-0.92 0.5,0 0.9,0.42 0.9,0.92 0,0 0,5.65 0,5.65 0,1.15 0.96,2.1 2.11,2.1 1.16,0 2.11,-0.95 2.11,-2.1l0 -8.25c0,-0.5 0.41,-0.9 0.92,-0.9 0.5,0 0.91,0.4 0.91,0.9l0 8.25c0,1.15 0.95,2.1 2.11,2.1 1.15,0 2.1,-0.95 2.1,-2.1l0 -6.86c0.06,-0.47 0.46,-0.83 0.93,-0.83 0.46,0 0.86,0.36 0.92,0.83l0 9.13c0,1.16 0.95,2.11 2.11,2.11 1.15,0 2.09,-0.95 2.09,-2.11l0 -2.32c0,-0.51 0.42,-0.92 0.92,-0.92 0.5,0 0.92,0.41 0.92,0.92l0 3.07c-0.01,4.44 -1.51,8.75 -4.2,12.26l-2.33 3.03 -10.93 0 -5.2 -4.76c-1.63,-1.51 -2.56,-3.63 -2.58,-5.86l0 -6.04 0 0z"/>
   <path class="fil0" d="M8.29 96.21l0 1.18c0,1.16 0.96,2.11 2.11,2.11 1.16,0 2.11,-0.95 2.11,-2.11l0 -1.18c0,-1.16 -0.95,-2.1 -2.11,-2.1 -1.15,0 -2.11,0.94 -2.11,2.1z"/>
   <path class="fil0" d="M33.57 93.9l0 3.49c0,1.16 0.95,2.11 2.11,2.11 1.15,0 2.11,-0.95 2.11,-2.11l0 -3.49c0,-1.14 -0.96,-2.1 -2.11,-2.1 -1.16,0 -2.11,0.96 -2.11,2.1z"/>
  </g>
 </g>
</svg>
