<?xml version="1.0" encoding="UTF-8"?>
<!DOCTYPE svg PUBLIC "-//W3C//DTD SVG 1.1//EN" "http://www.w3.org/Graphics/SVG/1.1/DTD/svg11.dtd">
<!-- Creator: CorelDRAW 2018 -->
<svg xmlns="http://www.w3.org/2000/svg" xml:space="preserve" width="100px" height="100px" version="1.1" style="shape-rendering:geometricPrecision; text-rendering:geometricPrecision; image-rendering:optimizeQuality; fill-rule:evenodd; clip-rule:evenodd"
viewBox="0 0 100 100"
 xmlns:xlink="http://www.w3.org/1999/xlink">
 <defs>
  <style type="text/css">
   <![CDATA[
    .fil0 {fill:#fff}
   ]]>
  </style>
 </defs>
 <g id="Layer_x0020_1">
  <metadata id="CorelCorpID_0Corel-Layer"/>
  <g id="_917821408">
   <path class="fil0" d="M36.32 65.89l-0.16 -8.07c2.43,-0.46 4.41,-2.59 4.41,-5.17 0,-2.89 -2.28,-5.18 -5.18,-5.18l-12.47 0 0 -3.65 2.59 0c0.91,0 1.52,-0.6 1.52,-1.51l0 -4.41 0.76 0c0.91,0 1.52,-0.61 1.52,-1.53l0 -3.49c0,-2.28 0.76,-4.27 2.29,-5.63 3.35,-3.2 5.02,-7.61 4.56,-12.17 -0.61,-6.99 -6.09,-12.63 -13.08,-13.39 -8.97,-1.22 -16.73,5.78 -16.73,14.6 0,3.96 1.51,7.76 4.4,10.65 1.69,1.67 2.59,3.8 2.59,5.94l0 3.49c0,0.92 0.61,1.53 1.52,1.53l0.76 0 0 4.41c0,0.91 0.61,1.51 1.53,1.51l2.58 0 0 3.65 -7.91 0c-6.23,0 -11.25,5.03 -11.25,11.26l0 38.19c0,0.91 0.6,1.51 1.51,1.51l25.11 0c0.91,0 1.51,-0.6 1.51,-1.51l0 -7.76 2.9 0c2.42,0 4.25,-1.98 4.25,-4.27l0 -5.78 4.57 0c1.06,0 1.82,-1.21 1.36,-2.28l-5.47 -10.95 0.01 0.01zm-23.28 -41.23c-2.29,-2.12 -3.65,-5.16 -3.65,-8.36 0,-6.85 5.93,-12.62 13.23,-11.71 5.48,0.6 9.89,5.16 10.35,10.64 0.3,3.65 -1.07,7.15 -3.66,9.73 -2.12,1.98 -3.19,4.88 -3.19,7.92l0 1.97c-0.16,0 -9.13,0 -8.97,0l-0.76 0 0 -1.97c0,-3.04 -1.23,-5.94 -3.35,-8.22l0 0zm5.63 13.24l5.17 0 0 2.88 -5.17 0 0 -2.88zm15.66 38.18c-0.91,0 -1.52,0.61 -1.52,1.51l0 7.3c0,0.77 -0.6,1.23 -1.21,1.23l-4.41 0c-0.93,0 -1.53,0.6 -1.53,1.51l0 7.76 -22.05 0 0 -36.66c0,-4.55 3.65,-8.22 8.21,-8.22l23.43 0c1.21,0 2.12,0.93 2.12,2.14 0,1.21 -0.91,2.13 -2.12,2.13l-12.17 0c-2.14,0 -3.95,1.68 -3.95,3.95l0 2.89c0,0.92 0.6,1.53 1.51,1.53 0.91,0 1.53,-0.61 1.53,-1.53l0 -2.89c0,-0.46 0.3,-0.9 0.91,-0.9l9.89 0 0.14 8.36c0,0.3 0,0.46 0.16,0.61l4.56 9.12 -3.5 0 0 0.16 0 0z"/>
   <polygon class="fil0" points="27.03,66.95 30.53,66.95 30.53,63.45 27.03,63.45 "/>
   <path class="fil0" d="M88.18 47.47l-7.91 0 0 -3.65 2.58 0c0.92,0 1.53,-0.6 1.53,-1.51l0 -4.41 0.76 0c0.91,0 1.52,-0.61 1.52,-1.53l0 -3.49c0,-2.28 0.76,-4.27 2.27,-5.63 3.35,-3.2 5.02,-7.61 4.58,-12.17 -0.61,-6.99 -6.09,-12.63 -13.08,-13.39 -8.99,-1.05 -16.59,5.94 -16.59,14.76 0,3.95 1.52,7.76 4.42,10.64 1.67,1.68 2.58,3.81 2.58,5.93l0 3.51c0,0.9 0.6,1.51 1.53,1.51l0.75 0 0 4.41c0,0.93 0.62,1.53 1.52,1.53l2.58 0 0 3.65 -12.47 0c-2.88,0 -5.17,2.28 -5.17,5.18 0,2.58 1.98,4.71 4.41,5.16l-0.31 7.91 -5.62 10.95c-0.46,1.07 0.16,2.28 1.37,2.28l4.56 0 0 5.78c0,2.44 1.99,4.27 4.27,4.27l3.04 0 0 7.76c0,0.91 0.6,1.51 1.51,1.51l25.11 0c0.91,0 1.51,-0.6 1.51,-1.51l0 -38.19c0,-6.23 -5.02,-11.26 -11.25,-11.26l0 0zm-17.8 -22.81c-2.28,-2.28 -3.49,-5.16 -3.49,-8.36 0,-6.85 5.92,-12.62 13.23,-11.71 5.47,0.6 9.88,5.16 10.34,10.64 0.31,3.65 -1.06,7.15 -3.64,9.73 -2.14,1.98 -3.21,4.88 -3.21,7.92l0 1.97 -0.76 0 -8.21 0 -0.76 0 0 -1.97c0,-3.04 -1.21,-5.94 -3.5,-8.22l0 0zm5.78 13.24l5.17 0 0 2.88 -5.17 0 0 -2.88zm20.23 57.49l-22.05 0 0 -7.76c0,-0.91 -0.6,-1.51 -1.53,-1.51l-4.41 0c-0.75,0 -1.21,-0.61 -1.21,-1.23l0 -7.3c0,-0.9 -0.61,-1.51 -1.52,-1.51l-3.66 0 4.57 -9.13c0.15,-0.16 0.15,-0.46 0.15,-0.6l0.16 -8.38 9.87 0c0.46,0 0.93,0.3 0.93,0.92l0 2.89c0,0.91 0.6,1.51 1.51,1.51 0.92,0 1.53,-0.6 1.53,-1.51l0 -2.89c0,-2.13 -1.67,-3.96 -3.97,-3.96l-12.15 0c-1.23,0 -2.14,-0.91 -2.14,-2.12 0,-1.23 0.91,-2.14 2.14,-2.14l23.42 0c4.55,0 8.22,3.65 8.22,8.22l0 36.5 0.14 0z"/>
   <polygon class="fil0" points="69.47,66.95 72.97,66.95 72.97,63.45 69.47,63.45 "/>
   <path class="fil0" d="M39.5 35.16c1.23,0 1.98,-1.37 1.23,-2.44 -0.46,-0.61 -1.37,-0.91 -2.14,-0.45 -1.22,0.91 -0.6,2.89 0.91,2.89l0 0z"/>
   <path class="fil0" d="M61.87 34.55c0.44,-0.76 0.3,-1.67 -0.46,-2.13 -0.61,-0.45 -1.68,-0.31 -2.14,0.46 -0.44,0.76 -0.3,1.67 0.46,2.13 0.61,0.31 1.53,0.31 2.14,-0.46z"/>
   <path class="fil0" d="M64.91 37.74c0.61,-0.61 0.61,-1.52 0.14,-2.12 -0.6,-0.61 -1.51,-0.61 -2.11,-0.16 -0.62,0.61 -0.77,1.53 -0.16,2.13 0.6,0.61 1.53,0.77 2.13,0.15l0 0z"/>
   <path class="fil0" d="M66.58 44.89c0.15,0.76 1.07,1.37 1.82,1.07 0.76,-0.16 1.37,-1.07 1.07,-1.83 -0.15,-0.75 -1.07,-1.37 -1.82,-1.06 -0.76,0.15 -1.23,0.91 -1.07,1.82l0 0z"/>
   <path class="fil0" d="M34.95 35.62c-0.93,1.05 -0.16,2.58 1.21,2.58 1.37,0 1.97,-1.83 1.06,-2.74 -0.76,-0.61 -1.67,-0.45 -2.27,0.16l0 0z"/>
   <path class="fil0" d="M65.82 38.96c-0.77,0.45 -1.07,1.37 -0.61,2.12 0.31,0.77 1.21,1.07 2.12,0.62 0.77,-0.46 1.07,-1.37 0.62,-2.13 -0.62,-0.77 -1.53,-1.07 -2.13,-0.61z"/>
   <path class="fil0" d="M52.44 28.93c-0.77,-0.16 -1.53,0.44 -1.68,1.37 -0.15,0.75 0.45,1.67 1.52,1.67 0.76,0 1.37,-0.62 1.53,-1.37 0,-0.76 -0.61,-1.53 -1.37,-1.67z"/>
   <path class="fil0" d="M47.56 28.93c-0.9,0.14 -1.37,0.91 -1.37,1.67 0.16,0.75 0.62,1.37 1.68,1.37 0.76,-0.16 1.37,-0.92 1.37,-1.67 -0.15,-0.77 -0.75,-1.37 -1.68,-1.37z"/>
   <path class="fil0" d="M34.18 38.96c-0.76,-0.46 -1.67,-0.16 -2.13,0.61 -0.61,1.07 0.3,2.28 1.37,2.28 1.67,0 2.28,-2.12 0.76,-2.89l0 0z"/>
   <path class="fil0" d="M57.15 30.14c-0.76,-0.3 -1.67,0.16 -1.97,0.91 -0.47,1.06 0.44,2.13 1.37,2.13 0.6,0 1.21,-0.46 1.37,-0.91 0.44,-0.92 0,-1.83 -0.77,-2.13l0 0z"/>
   <path class="fil0" d="M42.85 30.14c-0.77,0.3 -1.21,1.21 -0.91,1.97 0.3,0.61 0.76,0.91 1.37,0.91 1.07,0 1.82,-1.05 1.37,-2.12 -0.16,-0.6 -1.07,-1.06 -1.83,-0.76l0 0z"/>
   <path class="fil0" d="M30.53 44.13c-0.16,0.76 0.31,1.67 1.07,1.83 0.75,0.16 1.67,-0.31 1.82,-1.07 0.16,-0.76 -0.31,-1.67 -1.07,-1.82 -0.91,-0.31 -1.67,0.31 -1.82,1.06l0 0z"/>
  </g>
 </g>
</svg>
