<?xml version="1.0" encoding="UTF-8"?>
<!DOCTYPE svg PUBLIC "-//W3C//DTD SVG 1.1//EN" "http://www.w3.org/Graphics/SVG/1.1/DTD/svg11.dtd">
<!-- Creator: CorelDRAW 2018 -->
<svg xmlns="http://www.w3.org/2000/svg" xml:space="preserve" width="30px" height="30px" version="1.1" style="shape-rendering:geometricPrecision; text-rendering:geometricPrecision; image-rendering:optimizeQuality; fill-rule:evenodd; clip-rule:evenodd"
viewBox="0 0 30 30"
 xmlns:xlink="http://www.w3.org/1999/xlink"
 xmlns:sketch="http://www.bohemiancoding.com/sketch/ns">
 <defs>
  <style type="text/css">
   <![CDATA[
    .fil0 {fill:#FE6604}
    .fil1 {fill:white}
   ]]>
  </style>
 </defs>
 <g id="Layer_x0020_1">
  <metadata id="CorelCorpID_0Corel-Layer"/>
  <g id="linkedin">
   <path id="Linkedin" class="fil0" d="M15 29c7.73,0 14,-6.27 14,-14 0,-7.73 -6.27,-14 -14,-14 -7.73,0 -14,6.27 -14,14 0,7.73 6.27,14 14,14z"/>
   <path class="fil1" d="M11.21 21.45l0 -8.54 -2.64 0 0 8.54 2.64 0zm0 -11.57c-0.01,-0.76 -0.52,-1.34 -1.35,-1.34 -0.83,0 -1.37,0.58 -1.37,1.34 0,0.75 0.53,1.35 1.34,1.35l0.01 0c0.85,0 1.37,-0.6 1.37,-1.35zm4.31 11.57l0 -4.86c0,-0.26 0.02,-0.53 0.09,-0.71 0.21,-0.52 0.69,-1.06 1.49,-1.06 1.05,0 1.7,0.59 1.7,1.77l0 4.86 2.66 0 0 -4.99c0,-2.68 -1.43,-3.93 -3.33,-3.93 -1.56,0 -2.25,0.88 -2.63,1.47l0.02 -1.14 -2.65 0c0.03,0.82 0,8.59 0,8.59l2.65 0z"/>
  </g>
 </g>
</svg>
