<?xml version="1.0" encoding="UTF-8"?>
<!DOCTYPE svg PUBLIC "-//W3C//DTD SVG 1.1//EN" "http://www.w3.org/Graphics/SVG/1.1/DTD/svg11.dtd">
<!-- Creator: CorelDRAW 2018 -->
<svg xmlns="http://www.w3.org/2000/svg" xml:space="preserve" width="30px" height="30px" version="1.1" style="shape-rendering:geometricPrecision; text-rendering:geometricPrecision; image-rendering:optimizeQuality; fill-rule:evenodd; clip-rule:evenodd"
viewBox="0 0 30 30"
 xmlns:xlink="http://www.w3.org/1999/xlink"
 xmlns:sketch="http://www.bohemiancoding.com/sketch/ns">
 <defs>
  <style type="text/css">
   <![CDATA[
    .fil0 {fill:#FE6604}
    .fil1 {fill:white}
   ]]>
  </style>
 </defs>
 <g id="Layer_x0020_1">
  <metadata id="CorelCorpID_0Corel-Layer"/>
  <g id="instagram">
   <path id="Instagram" class="fil0" d="M15 29c7.73,0 14,-6.27 14,-14 0,-7.73 -6.27,-14 -14,-14 -7.73,0 -14,6.27 -14,14 0,7.73 6.27,14 14,14z"/>
   <path class="fil1" d="M11.16 12.31l-4.24 0 0 -0.54 0 0c0,5.19 0,8.44 0,8.44 0,2.33 2.34,2.33 2.34,2.33l10.95 0c0,0 2.33,0 2.33,-2.33l0 -7.9 0 0 0 -0.54 -4.58 0c-0.73,-0.98 -1.91,-1.62 -3.23,-1.62 -1.32,0 -2.49,0.64 -3.23,1.62l-4.58 0c0,-0.79 0,-1.63 0,-2.51 0,-1.48 0.93,-2.02 1.62,-2.22l0 3.11 0.54 0 0 -3.22 0 0c0.11,-0.01 0.18,-0.01 0.18,-0.01l10.95 0c0,0 2.33,0 2.33,2.34l0 3.05 -4.24 0c0.3,0.56 0.47,1.2 0.47,1.88 0,2.23 -1.81,4.04 -4.04,4.04 -2.23,0 -4.04,-1.81 -4.04,-4.04 0,-0.68 0.17,-1.32 0.47,-1.88l0 0zm8.54 -4.31c-0.51,0 -0.93,0.42 -0.93,0.93l0 0.83c0,0.51 0.42,0.93 0.93,0.93l0.83 0c0.51,0 0.93,-0.42 0.93,-0.93l0 -0.83c0,-0.51 -0.42,-0.93 -0.93,-0.93l-0.83 0zm-9.01 -1.08l0 3.23 0.54 0 0 -3.23 -0.54 0zm-1.08 0l0 3.23 0.54 0 0 -3.23 -0.54 0zm5.12 10.5c1.79,0 3.23,-1.44 3.23,-3.23 0,-1.78 -1.44,-3.23 -3.23,-3.23 -1.78,0 -3.23,1.45 -3.23,3.23 0,1.79 1.45,3.23 3.23,3.23zm0 -1.07c1.19,0 2.16,-0.97 2.16,-2.16 0,-1.19 -0.97,-2.15 -2.16,-2.15 -1.19,0 -2.15,0.96 -2.15,2.15 0,1.19 0.96,2.16 2.15,2.16z"/>
  </g>
 </g>
</svg>
