<?xml version="1.0" encoding="UTF-8"?>
<!DOCTYPE svg PUBLIC "-//W3C//DTD SVG 1.1//EN" "http://www.w3.org/Graphics/SVG/1.1/DTD/svg11.dtd">
<!-- Creator: CorelDRAW 2018 -->
<svg xmlns="http://www.w3.org/2000/svg" xml:space="preserve" width="30px" height="30px" version="1.1" style="shape-rendering:geometricPrecision; text-rendering:geometricPrecision; image-rendering:optimizeQuality; fill-rule:evenodd; clip-rule:evenodd"
viewBox="0 0 30 30"
 xmlns:xlink="http://www.w3.org/1999/xlink"
 xmlns:sketch="http://www.bohemiancoding.com/sketch/ns">
 <defs>
  <style type="text/css">
   <![CDATA[
    .fil0 {fill:#FE6604}
    .fil1 {fill:white}
   ]]>
  </style>
 </defs>
 <g id="Layer_x0020_1">
  <metadata id="CorelCorpID_0Corel-Layer"/>
  <g id="facebook">
   <path id="Facebook" class="fil0" d="M15 29c7.73,0 14,-6.27 14,-14 0,-7.73 -6.27,-14 -14,-14 -7.73,0 -14,6.27 -14,14 0,7.73 6.27,14 14,14z"/>
   <path class="fil1" d="M12.88 23.08l0 -8.08 -1.64 0 0 -2.68 1.64 0 0 -1.62c0,-2.18 0.66,-3.76 3.05,-3.76l2.84 0 0 2.67 -2 0c-1,0 -1.23,0.67 -1.23,1.37l0 1.34 3.09 0 -0.43 2.68 -2.66 0 0 8.08 -2.66 0z"/>
  </g>
 </g>
</svg>
